<?xml version="1.0" encoding="UTF-8"?>
<!DOCTYPE svg PUBLIC "-//W3C//DTD SVG 1.1//EN" "http://www.w3.org/Graphics/SVG/1.1/DTD/svg11.dtd">
<svg xmlns="http://www.w3.org/2000/svg" version="1.1" width="995px" height="490px" style="shape-rendering:geometricPrecision; text-rendering:geometricPrecision; image-rendering:optimizeQuality; fill-rule:evenodd; clip-rule:evenodd" xmlns:xlink="http://www.w3.org/1999/xlink">
<g><path style="opacity:1" fill="#065838" d="M 414.5,17.5 C 414.833,17.5 415.167,17.5 415.5,17.5C 416.334,18.7479 417.667,19.4146 419.5,19.5C 429.81,21.6611 440.143,23.6611 450.5,25.5C 452.965,25.767 455.299,26.4336 457.5,27.5C 457.856,28.8699 458.69,29.8699 460,30.5C 469.719,34.2756 478.886,38.9423 487.5,44.5C 488.167,44.5 488.5,44.8333 488.5,45.5C 489.977,48.9344 492.643,50.9344 496.5,51.5C 498.167,52.5 499.5,53.8333 500.5,55.5C 500.241,59.2368 501.907,61.5702 505.5,62.5C 507.975,64.7703 509.975,67.437 511.5,70.5C 514.573,76.9886 517.406,83.6553 520,90.5C 520.671,91.2524 521.504,91.5858 522.5,91.5C 522.5,91.8333 522.5,92.1667 522.5,92.5C 522.195,98.5775 523.861,103.911 527.5,108.5C 528.917,111.998 529.583,115.665 529.5,119.5C 529.665,123.182 529.499,126.848 529,130.5C 528.124,128.365 526.624,127.031 524.5,126.5C 525.138,123.144 523.804,121.144 520.5,120.5C 520.34,118.847 519.674,117.514 518.5,116.5C 516.367,114.909 514.701,112.909 513.5,110.5C 513.25,108.326 512.25,106.659 510.5,105.5C 508.949,102.437 506.782,99.7705 504,97.5C 503.517,96.552 503.351,95.552 503.5,94.5C 501.784,94.3713 500.117,94.038 498.5,93.5C 496.833,92.5 495.5,91.1667 494.5,89.5C 493.294,86.7022 491.294,84.5355 488.5,83C 484.411,80.8733 480.577,78.3733 477,75.5C 476.843,79.1817 478.677,81.1817 482.5,81.5C 483.888,86.5746 486.888,90.5746 491.5,93.5C 493.144,96.0045 494.644,98.6711 496,101.5C 496.816,102.823 497.983,103.489 499.5,103.5C 504.516,109.528 508.516,116.195 511.5,123.5C 512.739,128.773 514.739,133.773 517.5,138.5C 517.957,139.298 518.624,139.631 519.5,139.5C 519.5,139.833 519.5,140.167 519.5,140.5C 518.903,140.735 518.57,141.235 518.5,142C 520.347,146.704 521.68,151.538 522.5,156.5C 522.351,158.32 521.684,159.82 520.5,161C 504.656,162.263 489.323,160.097 474.5,154.5C 469.081,152.956 464.081,150.622 459.5,147.5C 459.586,146.504 459.252,145.671 458.5,145C 456.22,144.297 454.22,143.131 452.5,141.5C 451.817,141.863 451.15,142.196 450.5,142.5C 449.833,142.5 449.5,142.167 449.5,141.5C 448.422,138.092 446.089,136.092 442.5,135.5C 440.167,133.833 438.167,131.833 436.5,129.5C 434.256,125.405 431.756,121.405 429,117.5C 428.329,116.748 427.496,116.414 426.5,116.5C 422.496,110.815 419.83,104.482 418.5,97.5C 419.73,94.6226 418.73,92.6226 415.5,91.5C 415.5,91.1667 415.5,90.8333 415.5,90.5C 416.582,88.6728 416.582,86.6728 415.5,84.5C 415.253,83.2867 414.586,82.62 413.5,82.5C 413.5,82.1667 413.5,81.8333 413.5,81.5C 415.18,79.2736 414.847,77.6069 412.5,76.5C 412.5,76.1667 412.5,75.8333 412.5,75.5C 413.139,74.9032 413.472,74.0698 413.5,73C 412.946,70.1764 412.446,67.343 412,64.5C 411.95,62.256 411.117,60.5893 409.5,59.5C 408.659,57.6208 408.325,55.6208 408.5,53.5C 409.124,53.0831 409.457,52.4164 409.5,51.5C 408.492,45.8018 407.325,40.1351 406,34.5C 405.26,32.6813 404.093,31.3479 402.5,30.5C 402.5,30.1667 402.5,29.8333 402.5,29.5C 402.416,25.6818 401.916,22.0152 401,18.5C 405.579,18.5184 410.079,18.1851 414.5,17.5 Z"/></g>
<g><path style="opacity:0.592" fill="#072c1c" d="M 414.5,17.5 C 410.079,18.1851 405.579,18.5184 401,18.5C 401.916,22.0152 402.416,25.6818 402.5,29.5C 400.036,25.5564 398.37,21.2231 397.5,16.5C 403.358,16.1778 409.025,16.5111 414.5,17.5 Z"/></g>
<g><path style="opacity:0.981" fill="#082f1e" d="M 415.5,17.5 C 427.814,17.8926 439.48,20.5593 450.5,25.5C 440.143,23.6611 429.81,21.6611 419.5,19.5C 417.667,19.4146 416.334,18.7479 415.5,17.5 Z"/></g>
<g><path style="opacity:0.608" fill="#07281a" d="M 457.5,27.5 C 468.947,30.9494 478.947,36.6161 487.5,44.5C 478.886,38.9423 469.719,34.2756 460,30.5C 458.69,29.8699 457.856,28.8699 457.5,27.5 Z"/></g>
<g><path style="opacity:0.949" fill="#072f20" d="M 488.5,45.5 C 491.563,47.0252 494.23,49.0252 496.5,51.5C 492.643,50.9344 489.977,48.9344 488.5,45.5 Z"/></g>
<g><path style="opacity:0.918" fill="#073723" d="M 402.5,30.5 C 404.093,31.3479 405.26,32.6813 406,34.5C 407.325,40.1351 408.492,45.8018 409.5,51.5C 409.457,52.4164 409.124,53.0831 408.5,53.5C 406.402,45.9669 404.402,38.3002 402.5,30.5 Z"/></g>
<g><path style="opacity:1" fill="#09261a" d="M 500.5,55.5 C 503.323,56.9923 504.99,59.3257 505.5,62.5C 501.907,61.5702 500.241,59.2368 500.5,55.5 Z"/></g>
<g><path style="opacity:0.318" fill="#072318" d="M 409.5,59.5 C 411.117,60.5893 411.95,62.256 412,64.5C 412.446,67.343 412.946,70.1764 413.5,73C 413.472,74.0698 413.139,74.9032 412.5,75.5C 410.754,70.4281 409.754,65.0947 409.5,59.5 Z"/></g>
<g><path style="opacity:0.265" fill="#072115" d="M 511.5,70.5 C 513.074,70.9371 514.241,71.9371 515,73.5C 517.789,79.4067 520.289,85.4067 522.5,91.5C 521.504,91.5858 520.671,91.2524 520,90.5C 517.406,83.6553 514.573,76.9886 511.5,70.5 Z"/></g>
<g><path style="opacity:0.345" fill="#02160d" d="M 412.5,76.5 C 414.847,77.6069 415.18,79.2736 413.5,81.5C 412.549,80.0813 412.216,78.4147 412.5,76.5 Z"/></g>
<g><path style="opacity:0.4" fill="#08261a" d="M 494.5,89.5 C 491.326,88.1122 488.326,86.6122 485.5,85C 487.745,87.7309 489.745,90.5642 491.5,93.5C 486.888,90.5746 483.888,86.5746 482.5,81.5C 478.677,81.1817 476.843,79.1817 477,75.5C 480.577,78.3733 484.411,80.8733 488.5,83C 491.294,84.5355 493.294,86.7022 494.5,89.5 Z"/></g>
<g><path style="opacity:0.616" fill="#041d13" d="M 413.5,82.5 C 414.586,82.62 415.253,83.2867 415.5,84.5C 416.582,86.6728 416.582,88.6728 415.5,90.5C 414.232,88.0948 413.565,85.4282 413.5,82.5 Z"/></g>
<g><path style="opacity:0.945" fill="#0c3020" d="M 415.5,91.5 C 418.73,92.6226 419.73,94.6226 418.5,97.5C 417.029,95.7844 416.029,93.7844 415.5,91.5 Z"/></g>
<g><path style="opacity:1" fill="#093321" d="M 522.5,92.5 C 524.909,97.4913 526.576,102.825 527.5,108.5C 523.861,103.911 522.195,98.5775 522.5,92.5 Z"/></g>
<g><path style="opacity:0.235" fill="#063521" d="M 498.5,93.5 C 500.117,94.038 501.784,94.3713 503.5,94.5C 503.351,95.552 503.517,96.552 504,97.5C 506.782,99.7705 508.949,102.437 510.5,105.5C 509.395,104.4 508.062,103.733 506.5,103.5C 503.833,100.167 501.167,96.8333 498.5,93.5 Z"/></g>
<g><path style="opacity:0.169" fill="#062317" d="M 491.5,93.5 C 493.229,94.1175 494.729,95.1175 496,96.5C 496.959,98.953 498.126,101.286 499.5,103.5C 498.126,101.286 496.959,98.953 496,96.5C 494.729,95.1175 493.229,94.1175 491.5,93.5 Z"/></g>
<g><path style="opacity:0.165" fill="#03150f" d="M 506.5,103.5 C 508.062,103.733 509.395,104.4 510.5,105.5C 512.25,106.659 513.25,108.326 513.5,110.5C 510.882,108.548 508.548,106.215 506.5,103.5 Z"/></g>
<g><path style="opacity:0.136" fill="#000704" d="M 518.5,116.5 C 519.674,117.514 520.34,118.847 520.5,120.5C 518.896,119.713 518.229,118.38 518.5,116.5 Z"/></g>
<g><path style="opacity:0.651" fill="#092016" d="M 520.5,120.5 C 523.804,121.144 525.138,123.144 524.5,126.5C 522.674,124.853 521.34,122.853 520.5,120.5 Z"/></g>
<g><path style="opacity:0.169" fill="#082218" d="M 426.5,116.5 C 427.496,116.414 428.329,116.748 429,117.5C 431.756,121.405 434.256,125.405 436.5,129.5C 434.284,128.797 432.451,127.464 431,125.5C 428.94,122.714 427.44,119.714 426.5,116.5 Z"/></g>
<g><path style="opacity:0.776" fill="#072317" d="M 529.5,119.5 C 530.814,124.348 530.814,129.348 529.5,134.5C 527.325,132.15 525.658,129.483 524.5,126.5C 526.624,127.031 528.124,128.365 529,130.5C 529.499,126.848 529.665,123.182 529.5,119.5 Z"/></g>
<g><path style="opacity:0.267" fill="#072b1d" d="M 511.5,123.5 C 512.376,123.369 513.043,123.702 513.5,124.5C 515.79,129.409 517.79,134.409 519.5,139.5C 518.624,139.631 517.957,139.298 517.5,138.5C 514.739,133.773 512.739,128.773 511.5,123.5 Z"/></g>
<g><path style="opacity:0.373" fill="#082a1c" d="M 442.5,135.5 C 446.089,136.092 448.422,138.092 449.5,141.5C 446.547,140.213 444.214,138.213 442.5,135.5 Z"/></g>
<g><path style="opacity:0.997" fill="#065637" d="M 156.5,176.5 C 157.896,182.061 158.562,187.727 158.5,193.5C 154.785,210.71 144.785,222.543 128.5,229C 132.392,230.64 136.392,231.973 140.5,233C 142.324,233.66 143.657,234.827 144.5,236.5C 146.713,239.563 149.379,242.23 152.5,244.5C 159.532,251.52 168.199,254.853 178.5,254.5C 186.296,254.6 192.963,251.933 198.5,246.5C 199.609,244.615 200.443,242.615 201,240.5C 201.667,224.5 201.667,208.5 201,192.5C 200.138,190.913 199.471,189.246 199,187.5C 196.913,186.206 194.746,185.039 192.5,184C 184.104,183.156 175.77,182.156 167.5,181C 160.627,176.268 158.294,169.935 160.5,162C 170.514,160.282 180.514,160.282 190.5,162C 193.648,163.076 196.648,164.409 199.5,166C 206.25,172.075 213.583,177.408 221.5,182C 225.342,186.543 229.509,190.709 234,194.5C 235.416,200.715 235.916,207.048 235.5,213.5C 235.5,217.167 235.5,220.833 235.5,224.5C 234.524,277.832 234.024,331.165 234,384.5C 234.5,386.333 235.667,387.5 237.5,388C 243.72,388.202 249.72,389.369 255.5,391.5C 257.288,396.189 256.621,400.356 253.5,404C 242.167,404.667 230.833,404.667 219.5,404C 207.888,399.878 200.555,391.712 197.5,379.5C 196.501,368.854 196.168,358.187 196.5,347.5C 197.117,347.389 197.617,347.056 198,346.5C 198.499,342.848 198.665,339.182 198.5,335.5C 198.442,313.826 198.776,292.159 199.5,270.5C 188.702,274.849 177.702,275.516 166.5,272.5C 164.841,269.861 163.008,269.861 161,272.5C 161.536,277.238 161.036,281.738 159.5,286C 159.836,287.03 160.503,287.53 161.5,287.5C 161.5,287.833 161.5,288.167 161.5,288.5C 160.25,288.577 159.417,289.244 159,290.5C 158.505,292.473 158.338,294.473 158.5,296.5C 153.586,309.915 144.419,319.248 131,324.5C 95.379,337.634 61.879,333.8 30.5,313C 12.1878,296.105 8.3545,276.271 19,253.5C 21.9706,250.94 24.8039,248.273 27.5,245.5C 43.4689,238.486 53.8022,243.319 58.5,260C 58.2144,264.108 56.881,267.775 54.5,271C 48.6117,272.888 42.7783,274.722 37,276.5C 36.5364,282.68 38.0364,288.347 41.5,293.5C 42.865,295.86 44.865,297.527 47.5,298.5C 48.5,298.833 49.1667,299.5 49.5,300.5C 49.3691,301.376 49.7025,302.043 50.5,302.5C 51.6868,303.653 52.6868,303.653 53.5,302.5C 58.5403,306.185 64.2069,308.518 70.5,309.5C 70.9175,310.222 71.5842,310.722 72.5,311C 76.5,311.167 80.5,311.333 84.5,311.5C 88.893,311.491 92.893,310.824 96.5,309.5C 100.558,308.37 104.558,307.036 108.5,305.5C 114.237,303.459 117.57,299.792 118.5,294.5C 125.823,282.217 127.156,269.217 122.5,255.5C 121.691,250.35 118.691,247.017 113.5,245.5C 110.139,243.153 106.472,241.319 102.5,240C 91.3836,239.996 80.3836,238.996 69.5,237C 66.1425,234.307 64.8092,230.807 65.5,226.5C 65.0996,221.404 67.0996,217.57 71.5,215C 82.28,215.026 92.9467,214.026 103.5,212C 114.829,204.631 119.162,194.131 116.5,180.5C 117.317,176.71 116.484,173.043 114,169.5C 112.736,167.393 110.903,166.393 108.5,166.5C 97.8711,161.087 86.8711,160.253 75.5,164C 72.7339,165.371 70.4006,167.204 68.5,169.5C 66.0274,169.088 64.6941,170.088 64.5,172.5C 60.3425,177.158 56.0092,181.658 51.5,186C 38.9149,188.082 33.7483,182.915 36,170.5C 36.6951,165.277 38.8618,160.777 42.5,157C 46.6192,154.71 50.2858,151.876 53.5,148.5C 59.9268,145.636 66.5935,143.469 73.5,142C 86.5,141.333 99.5,141.333 112.5,142C 117.938,143.359 123.272,145.026 128.5,147C 134.187,150.697 139.854,154.364 145.5,158C 151.487,162.813 155.153,168.98 156.5,176.5 Z"/></g>
<g><path style="opacity:0.333" fill="#082517" d="M 459.5,147.5 C 456.144,146.389 453.144,144.723 450.5,142.5C 451.15,142.196 451.817,141.863 452.5,141.5C 454.22,143.131 456.22,144.297 458.5,145C 459.252,145.671 459.586,146.504 459.5,147.5 Z"/></g>
<g><path style="opacity:0.404" fill="#062e1e" d="M 519.5,140.5 C 522.069,146.208 524.069,152.208 525.5,158.5C 524.96,159.748 524.293,160.915 523.5,162C 508.295,163.763 493.462,162.263 479,157.5C 477.423,156.449 475.923,155.449 474.5,154.5C 489.323,160.097 504.656,162.263 520.5,161C 521.684,159.82 522.351,158.32 522.5,156.5C 521.68,151.538 520.347,146.704 518.5,142C 518.57,141.235 518.903,140.735 519.5,140.5 Z"/></g>
<g><path style="opacity:0.987" fill="#065737" d="M 328.5,219.5 C 327.463,220.93 326.796,222.597 326.5,224.5C 324.734,275.492 323.567,326.492 323,377.5C 324.068,382.235 326.901,385.402 331.5,387C 335.123,388.156 338.789,389.156 342.5,390C 345.186,392.546 346.186,395.713 345.5,399.5C 379.019,390.329 412.853,382.329 447,375.5C 477.317,369.788 507.817,365.288 538.5,362C 540.676,361.837 542.509,361.004 544,359.5C 545.724,310.521 547.39,261.521 549,212.5C 549.208,206.788 547.375,201.955 543.5,198C 536.426,196.387 530.593,192.887 526,187.5C 524.566,183.594 524.233,179.594 525,175.5C 533.064,172.976 540.898,173.809 548.5,178C 557.277,185.562 566.277,192.895 575.5,200C 582.912,207.631 585.579,216.798 583.5,227.5C 582.767,246.16 582.433,264.827 582.5,283.5C 581.414,283.62 580.747,284.287 580.5,285.5C 580.543,286.416 580.876,287.083 581.5,287.5C 581.5,300.833 581.5,314.167 581.5,327.5C 579.403,328.879 579.07,330.545 580.5,332.5C 580.334,339.841 580.5,347.174 581,354.5C 582.353,355.704 584.019,356.371 586,356.5C 650.753,351.992 715.586,350.325 780.5,351.5C 781.449,352.152 782.615,352.486 784,352.5C 785.681,352.392 786.848,351.725 787.5,350.5C 828.837,350.675 870.171,350.842 911.5,351C 912,350.5 912.5,350 913,349.5C 914.277,336.199 914.777,322.865 914.5,309.5C 912.486,309.392 910.82,310.058 909.5,311.5C 907.973,311.427 906.973,312.094 906.5,313.5C 892.141,327.326 874.808,333.993 854.5,333.5C 825.651,334.072 801.817,323.739 783,302.5C 779.227,295.288 775.727,287.955 772.5,280.5C 769.148,276.314 765.314,272.647 761,269.5C 759.281,262.071 762.115,256.905 769.5,254C 785.03,247.726 798.03,251.06 808.5,264C 818.504,269.97 828.004,269.136 837,261.5C 848.951,249.098 850.617,235.431 842,220.5C 836.341,213.491 829.175,208.991 820.5,207C 808.875,205.806 797.208,205.139 785.5,205C 778.369,203.068 771.369,200.734 764.5,198C 760.242,193.728 758.242,188.561 758.5,182.5C 774.167,182.5 789.833,182.5 805.5,182.5C 805.47,183.497 805.97,184.164 807,184.5C 810.135,183.568 813.301,183.568 816.5,184.5C 842.542,184.669 868.542,185.836 894.5,188C 915.976,194.822 933.81,206.989 948,224.5C 948.5,231.158 948.666,237.825 948.5,244.5C 947.414,244.62 946.747,245.287 946.5,246.5C 946.543,247.416 946.876,248.083 947.5,248.5C 947.5,257.167 947.5,265.833 947.5,274.5C 946.503,274.47 945.836,274.97 945.5,276C 946.086,279.65 946.419,283.15 946.5,286.5C 946.5,297.833 946.5,309.167 946.5,320.5C 945.172,325.288 944.505,330.454 944.5,336C 944.501,341.344 944.834,346.511 945.5,351.5C 952.411,352.927 959.411,354.094 966.5,355C 975.87,358.394 979.037,364.894 976,374.5C 975.487,376.521 974.32,378.021 972.5,379C 968.381,380.867 964.048,381.701 959.5,381.5C 939.847,379.89 920.181,378.557 900.5,377.5C 899.486,376.326 898.153,375.66 896.5,375.5C 838.88,372.107 781.213,369.773 723.5,368.5C 664.42,369.04 605.42,371.374 546.5,375.5C 544.973,375.427 543.973,376.094 543.5,377.5C 502.503,381.388 461.836,387.388 421.5,395.5C 419.517,395.157 418.183,395.824 417.5,397.5C 391.981,401.713 366.648,406.879 341.5,413C 320.944,419.64 300.277,425.973 279.5,432C 261.694,439.325 243.694,446.158 225.5,452.5C 224.167,452.5 223.5,453.167 223.5,454.5C 211.202,459.311 198.869,464.145 186.5,469C 179.694,470.46 178.361,468.793 182.5,464C 210.656,450.257 239.322,437.59 268.5,426C 287.412,420.252 306.078,413.919 324.5,407C 316.541,406.094 308.874,404.094 301.5,401C 297.768,398.055 294.601,394.555 292,390.5C 291.044,387.623 289.711,384.956 288,382.5C 287.5,370.171 287.333,357.838 287.5,345.5C 288.586,345.38 289.253,344.713 289.5,343.5C 288.901,339.013 288.568,334.68 288.5,330.5C 288.5,321.833 288.5,313.167 288.5,304.5C 289.378,300.664 290.044,296.664 290.5,292.5C 291.485,260.837 291.985,229.17 292,197.5C 291.64,195.579 290.806,193.912 289.5,192.5C 284.5,189.271 279.167,186.604 273.5,184.5C 272.141,182.308 270.308,180.641 268,179.5C 265.66,175.445 264.993,171.111 266,166.5C 274.745,164.643 283.245,165.476 291.5,169C 298.88,175.382 306.547,181.382 314.5,187C 324.502,195.474 329.168,206.307 328.5,219.5 Z M 862.5,207.5 C 874.505,207.333 886.505,207.5 898.5,208C 912.532,212.04 918.199,221.373 915.5,236C 915.175,247.174 914.675,258.341 914,269.5C 913.347,275.79 911.681,281.79 909,287.5C 903.666,293.738 897.499,298.904 890.5,303C 873.351,309.681 855.685,311.681 837.5,309C 824.455,307.452 816.788,300.285 814.5,287.5C 840.532,295.885 861.032,288.885 876,266.5C 887.122,244.027 882.789,225.36 863,210.5C 862.517,209.552 862.351,208.552 862.5,207.5 Z"/></g>
<g><path style="opacity:0.341" fill="#082c1d" d="M 108.5,166.5 C 110.903,166.393 112.736,167.393 114,169.5C 116.484,173.043 117.317,176.71 116.5,180.5C 114.848,175.189 112.181,170.522 108.5,166.5 Z"/></g>
<g><path style="opacity:0.999" fill="#065737" d="M 485.5,172.5 C 486.167,172.5 486.833,172.5 487.5,172.5C 490.273,173.657 493.273,174.324 496.5,174.5C 500.924,174.652 505.257,175.319 509.5,176.5C 512.529,178.699 515.529,181.032 518.5,183.5C 519.338,183.842 519.672,184.508 519.5,185.5C 519.382,187.962 519.049,190.462 518.5,193C 511.842,193.5 505.175,193.666 498.5,193.5C 493.456,193.173 488.456,193.506 483.5,194.5C 483.942,195.739 484.609,196.739 485.5,197.5C 487.587,198.585 488.92,200.251 489.5,202.5C 489.736,205.621 491.069,207.954 493.5,209.5C 493.5,211.167 493.5,212.833 493.5,214.5C 492.167,223.167 492.167,231.833 493.5,240.5C 494.716,253.043 492.882,265.043 488,276.5C 485.037,284.306 479.537,288.973 471.5,290.5C 460.158,289.759 448.658,289.093 437,288.5C 433.928,288.367 432.594,289.701 433,292.5C 435.442,295.117 437.942,297.45 440.5,299.5C 444.194,302.527 447.527,305.86 450.5,309.5C 451.818,313.086 454.485,315.086 458.5,315.5C 462.93,318.048 467.597,320.048 472.5,321.5C 472.577,322.75 473.244,323.583 474.5,324C 480.167,324.667 485.833,324.667 491.5,324C 492.756,323.583 493.423,322.75 493.5,321.5C 498.305,318.929 502.972,316.096 507.5,313C 513.523,311.191 517.189,313.357 518.5,319.5C 517.822,322.544 516.989,325.544 516,328.5C 515.617,329.056 515.117,329.389 514.5,329.5C 511.63,330.078 509.963,331.745 509.5,334.5C 509.167,334.5 508.833,334.5 508.5,334.5C 505.006,334.532 502.339,335.865 500.5,338.5C 497.196,340.417 493.529,341.584 489.5,342C 474.73,343.108 460.063,342.442 445.5,340C 441.354,338.426 437.354,336.593 433.5,334.5C 432.294,330.635 429.627,328.635 425.5,328.5C 421.36,323.939 417.027,319.605 412.5,315.5C 413.525,315.103 413.692,314.437 413,313.5C 409.615,309.783 406.615,305.783 404,301.5C 403.184,300.177 402.017,299.511 400.5,299.5C 399.026,298.564 398.026,297.23 397.5,295.5C 396.572,291.638 395.072,287.971 393,284.5C 392.329,283.748 391.496,283.414 390.5,283.5C 389.227,281.287 388.227,278.954 387.5,276.5C 387.975,273.361 387.141,270.361 385,267.5C 383.324,264.827 381.658,262.161 380,259.5C 378.871,257.859 377.371,256.859 375.5,256.5C 374.508,256.672 373.842,256.338 373.5,255.5C 373.063,253.926 372.063,252.759 370.5,252C 364.334,252.747 359.668,250.581 356.5,245.5C 356.952,239.063 360.286,235.229 366.5,234C 374.517,232.281 382.517,232.281 390.5,234C 394.035,234.663 397.035,236.163 399.5,238.5C 403.302,243.18 407.302,247.513 411.5,251.5C 412.167,251.5 412.5,251.833 412.5,252.5C 416.472,258.99 421.472,264.823 427.5,270C 428.448,270.483 429.448,270.649 430.5,270.5C 431.167,270.5 431.833,270.5 432.5,270.5C 432.804,271.15 433.137,271.817 433.5,272.5C 439.524,274.052 445.19,273.218 450.5,270C 451.823,269.184 452.489,268.017 452.5,266.5C 454.937,262.864 456.604,258.864 457.5,254.5C 459.43,250.627 460.097,246.294 459.5,241.5C 459.891,229.447 459.391,217.447 458,205.5C 456.727,202.403 454.893,199.736 452.5,197.5C 451.878,195.665 450.544,194.498 448.5,194C 444.833,193 441.167,192 437.5,191C 418.836,190.5 400.17,190.333 381.5,190.5C 378.09,190.543 374.757,190.043 371.5,189C 369.68,188.8 368.347,187.966 367.5,186.5C 364.116,182.905 360.45,179.572 356.5,176.5C 356.083,173.921 356.75,171.754 358.5,170C 397.862,169.951 437.195,171.118 476.5,173.5C 479.686,173.498 482.686,173.165 485.5,172.5 Z"/></g>
<g><path style="opacity:0.078" fill="#00100d" d="M 68.5,169.5 C 67.7377,171.262 66.4044,172.262 64.5,172.5C 64.6941,170.088 66.0274,169.088 68.5,169.5 Z"/></g>
<g><path style="opacity:0.562" fill="#062f1f" d="M 485.5,172.5 C 482.686,173.165 479.686,173.498 476.5,173.5C 437.195,171.118 397.862,169.951 358.5,170C 356.75,171.754 356.083,173.921 356.5,176.5C 355.186,174.105 355.186,171.605 356.5,169C 399.721,167.785 442.721,168.952 485.5,172.5 Z"/></g>
<g><path style="opacity:0.114" fill="#000000" d="M 487.5,172.5 C 490.187,172.336 492.854,172.503 495.5,173C 496.056,173.383 496.389,173.883 496.5,174.5C 493.273,174.324 490.273,173.657 487.5,172.5 Z"/></g>
<g><path style="opacity:0.624" fill="#092619" d="M 612.5,177.5 C 615.482,176.835 618.648,176.502 622,176.5C 647.325,177.857 672.491,179.191 697.5,180.5C 695.833,180.5 694.167,180.5 692.5,180.5C 665.821,179.833 639.154,178.833 612.5,177.5 Z"/></g>
<g><path style="opacity:1" fill="#065738" d="M 612.5,177.5 C 639.154,178.833 665.821,179.833 692.5,180.5C 708.248,181.674 724.081,183.007 740,184.5C 740.464,183.906 740.631,183.239 740.5,182.5C 740.833,182.5 741.167,182.5 741.5,182.5C 742.665,185.59 744.998,186.924 748.5,186.5C 752.58,189.379 754.58,193.379 754.5,198.5C 754.5,199.5 754.5,200.5 754.5,201.5C 749.405,201.221 744.405,201.555 739.5,202.5C 738.167,202.5 736.833,202.5 735.5,202.5C 735.5,219.833 735.5,237.167 735.5,254.5C 735.5,257.167 735.5,259.833 735.5,262.5C 732.976,276.642 730.643,290.975 728.5,305.5C 728.543,306.416 728.876,307.083 729.5,307.5C 729.5,307.833 729.5,308.167 729.5,308.5C 725.142,311.859 721.475,315.859 718.5,320.5C 716.853,322.326 714.853,323.66 712.5,324.5C 708.848,324.513 705.848,325.847 703.5,328.5C 702.533,329.806 701.199,330.473 699.5,330.5C 698.42,330.686 697.087,330.352 695.5,329.5C 693.131,329.595 691.464,330.595 690.5,332.5C 689.167,332.5 687.833,332.5 686.5,332.5C 677.314,330.992 667.981,329.659 658.5,328.5C 646.377,326.191 636.544,320.191 629,310.5C 628.517,309.552 628.351,308.552 628.5,307.5C 625.062,302.487 622.729,297.32 621.5,292C 621.164,290.97 620.497,290.47 619.5,290.5C 617.057,278.925 618.057,267.592 622.5,256.5C 625.59,255.335 626.924,253.002 626.5,249.5C 628.806,246.527 631.473,243.86 634.5,241.5C 636.924,240.97 639.257,240.136 641.5,239C 643.501,236.675 645.834,234.842 648.5,233.5C 648.833,233.5 649.167,233.5 649.5,233.5C 652.508,233.299 655.508,232.966 658.5,232.5C 660.333,232.415 661.666,231.748 662.5,230.5C 662.833,230.5 663.167,230.5 663.5,230.5C 663.791,231.649 664.624,232.316 666,232.5C 668.462,233.159 670.962,233.493 673.5,233.5C 682.228,235.136 689.728,239.136 696,245.5C 699.713,254.498 699.213,263.165 694.5,271.5C 692.741,272.871 690.741,273.871 688.5,274.5C 687.702,274.957 687.369,275.624 687.5,276.5C 685.5,276.5 683.5,276.5 681.5,276.5C 680.098,274.517 678.264,272.851 676,271.5C 673.144,267.361 672.81,263.028 675,258.5C 682.072,255.884 682.238,252.717 675.5,249C 672.174,248.828 668.841,248.995 665.5,249.5C 665.5,250.833 665.5,252.167 665.5,253.5C 665.167,253.5 664.833,253.5 664.5,253.5C 664.565,253.062 664.399,252.728 664,252.5C 660.574,254.68 657.574,257.347 655,260.5C 654.308,261.437 654.475,262.103 655.5,262.5C 655.5,263.167 655.167,263.5 654.5,263.5C 652.386,264.36 651.22,266.027 651,268.5C 650.195,271.696 650.362,274.696 651.5,277.5C 651.5,279.167 651.5,280.833 651.5,282.5C 650.134,287.739 650.801,292.906 653.5,298C 653.836,299.03 654.503,299.53 655.5,299.5C 656.906,299.973 657.573,300.973 657.5,302.5C 658.373,304.886 659.873,306.886 662,308.5C 662.399,308.272 662.565,307.938 662.5,307.5C 663.906,307.973 664.573,308.973 664.5,310.5C 671.999,315.231 679.666,315.564 687.5,311.5C 687.842,310.662 688.508,310.328 689.5,310.5C 692.061,308.629 694.561,306.629 697,304.5C 697.761,301.947 698.594,299.447 699.5,297C 699.272,296.601 698.938,296.435 698.5,296.5C 698.5,295.833 698.5,295.167 698.5,294.5C 699.496,294.586 700.329,294.252 701,293.5C 702.525,283.892 703.358,274.225 703.5,264.5C 703.5,262.5 703.5,260.5 703.5,258.5C 704.662,240.671 704.829,222.671 704,204.5C 703.925,202.065 703.092,201.398 701.5,202.5C 681.86,200.556 661.86,199.389 641.5,199C 633.784,198.121 626.784,196.287 620.5,193.5C 613.037,190.399 610.371,185.066 612.5,177.5 Z"/></g>
<g><path style="opacity:0.365" fill="#092015" d="M 509.5,176.5 C 513.888,177.179 516.888,179.512 518.5,183.5C 515.529,181.032 512.529,178.699 509.5,176.5 Z"/></g>
<g><path style="opacity:0.812" fill="#083a26" d="M 692.5,180.5 C 694.167,180.5 695.833,180.5 697.5,180.5C 711.946,180.065 726.279,180.732 740.5,182.5C 740.631,183.239 740.464,183.906 740,184.5C 724.081,183.007 708.248,181.674 692.5,180.5 Z"/></g>
<g><path style="opacity:0.616" fill="#082f1f" d="M 356.5,176.5 C 360.45,179.572 364.116,182.905 367.5,186.5C 364.484,185.657 361.817,184.157 359.5,182C 357.393,180.736 356.393,178.903 356.5,176.5 Z"/></g>
<g><path style="opacity:0.478" fill="#0b1e15" d="M 156.5,176.5 C 159.448,181.935 160.114,187.601 158.5,193.5C 158.562,187.727 157.896,182.061 156.5,176.5 Z"/></g>
<g><path style="opacity:0.489" fill="#0a2924" d="M 805.5,182.5 C 809.649,181.92 813.316,182.586 816.5,184.5C 813.301,183.568 810.135,183.568 807,184.5C 805.97,184.164 805.47,183.497 805.5,182.5 Z"/></g>
<g><path style="opacity:0.749" fill="#072c1e" d="M 741.5,182.5 C 744.317,183.095 746.65,184.428 748.5,186.5C 744.998,186.924 742.665,185.59 741.5,182.5 Z"/></g>
<g><path style="opacity:0.978" fill="#073724" d="M 519.5,185.5 C 522.046,188.868 522.046,192.201 519.5,195.5C 516.833,194.167 514.167,194.167 511.5,195.5C 507.167,195.5 502.833,195.5 498.5,195.5C 498.5,194.833 498.5,194.167 498.5,193.5C 505.175,193.666 511.842,193.5 518.5,193C 519.049,190.462 519.382,187.962 519.5,185.5 Z"/></g>
<g><path style="opacity:0.042" fill="#03110c" d="M 498.5,193.5 C 498.5,194.167 498.5,194.833 498.5,195.5C 493.706,194.903 489.373,195.57 485.5,197.5C 484.609,196.739 483.942,195.739 483.5,194.5C 488.456,193.506 493.456,193.173 498.5,193.5 Z"/></g>
<g><path style="opacity:0.043" fill="#010b06" d="M 519.5,195.5 C 516.833,196.833 514.167,196.833 511.5,195.5C 514.167,194.167 516.833,194.167 519.5,195.5 Z"/></g>
<g><path style="opacity:0.243" fill="#061910" d="M 381.5,190.5 C 400.17,190.333 418.836,190.5 437.5,191C 441.167,192 444.833,193 448.5,194C 450.544,194.498 451.878,195.665 452.5,197.5C 447.19,195.842 441.857,194.175 436.5,192.5C 418.004,191.833 399.671,191.167 381.5,190.5 Z"/></g>
<g><path style="opacity:0.522" fill="#092d1e" d="M 620.5,193.5 C 626.784,196.287 633.784,198.121 641.5,199C 661.86,199.389 681.86,200.556 701.5,202.5C 681.147,202.742 660.814,202.242 640.5,201C 634.74,200.048 629.074,198.715 623.5,197C 621.937,196.241 620.937,195.074 620.5,193.5 Z"/></g>
<g><path style="opacity:0.557" fill="#0b2519" d="M 754.5,198.5 C 755.434,199.568 755.768,200.901 755.5,202.5C 750.213,203.342 744.88,203.676 739.5,203.5C 739.5,203.167 739.5,202.833 739.5,202.5C 744.405,201.555 749.405,201.221 754.5,201.5C 754.5,200.5 754.5,199.5 754.5,198.5 Z"/></g>
<g><path style="opacity:0.051" fill="#041a10" d="M 489.5,202.5 C 491.942,204.121 493.275,206.454 493.5,209.5C 491.069,207.954 489.736,205.621 489.5,202.5 Z"/></g>
<g><path style="opacity:0.725" fill="#0c3120" d="M 739.5,202.5 C 739.5,202.833 739.5,203.167 739.5,203.5C 738.883,203.611 738.383,203.944 738,204.5C 737.851,221.359 737.017,238.025 735.5,254.5C 735.5,237.167 735.5,219.833 735.5,202.5C 736.833,202.5 738.167,202.5 739.5,202.5 Z"/></g>
<g><path style="opacity:0.126" fill="#000000" d="M 235.5,213.5 C 236.787,214.871 237.453,216.705 237.5,219C 237.453,221.295 236.787,223.129 235.5,224.5C 235.5,220.833 235.5,217.167 235.5,213.5 Z"/></g>
<g><path style="opacity:0.757" fill="#023922" d="M 703.5,258.5 C 703.737,257.209 703.404,256.209 702.5,255.5C 702.819,237.757 702.486,220.09 701.5,202.5C 703.092,201.398 703.925,202.065 704,204.5C 704.829,222.671 704.662,240.671 703.5,258.5 Z"/></g>
<g><path style="opacity:0.337" fill="#02160e" d="M 493.5,214.5 C 494.833,223.167 494.833,231.833 493.5,240.5C 492.167,231.833 492.167,223.167 493.5,214.5 Z"/></g>
<g><path style="opacity:0.046" fill="#000000" d="M 328.5,219.5 C 328.88,221.698 328.213,223.365 326.5,224.5C 326.796,222.597 327.463,220.93 328.5,219.5 Z"/></g>
<g><path style="opacity:0.061" fill="#042215" d="M 662.5,230.5 C 661.666,231.748 660.333,232.415 658.5,232.5C 655.508,232.966 652.508,233.299 649.5,233.5C 650.23,231.955 651.563,231.122 653.5,231C 656.482,230.502 659.482,230.335 662.5,230.5 Z"/></g>
<g><path style="opacity:0.774" fill="#082519" d="M 663.5,230.5 C 666.038,230.507 668.538,230.841 671,231.5C 672.376,231.684 673.209,232.351 673.5,233.5C 670.962,233.493 668.462,233.159 666,232.5C 664.624,232.316 663.791,231.649 663.5,230.5 Z"/></g>
<g><path style="opacity:0.322" fill="#073a26" d="M 648.5,233.5 C 645.834,234.842 643.501,236.675 641.5,239C 639.257,240.136 636.924,240.97 634.5,241.5C 638.224,237.301 642.891,234.635 648.5,233.5 Z"/></g>
<g><path style="opacity:0.38" fill="#072819" d="M 144.5,236.5 C 148.167,238.167 150.833,240.833 152.5,244.5C 149.379,242.23 146.713,239.563 144.5,236.5 Z"/></g>
<g><path style="opacity:0.161" fill="#083422" d="M 399.5,238.5 C 404.887,241.554 408.887,245.887 411.5,251.5C 407.302,247.513 403.302,243.18 399.5,238.5 Z"/></g>
<g><path style="opacity:0.333" fill="#051b0f" d="M 948.5,244.5 C 948.768,246.099 948.434,247.432 947.5,248.5C 946.876,248.083 946.543,247.416 946.5,246.5C 946.747,245.287 947.414,244.62 948.5,244.5 Z"/></g>
<g><path style="opacity:0.61" fill="#09281c" d="M 113.5,245.5 C 118.691,247.017 121.691,250.35 122.5,255.5C 119.478,252.147 116.478,248.813 113.5,245.5 Z"/></g>
<g><path style="opacity:0.641" fill="#092218" d="M 459.5,241.5 C 460.097,246.294 459.43,250.627 457.5,254.5C 458.051,250.027 458.717,245.693 459.5,241.5 Z"/></g>
<g><path style="opacity:0.059" fill="#061d13" d="M 626.5,249.5 C 626.924,253.002 625.59,255.335 622.5,256.5C 623.472,253.868 624.805,251.535 626.5,249.5 Z"/></g>
<g><path style="opacity:0.922" fill="#09281b" d="M 356.5,245.5 C 359.668,250.581 364.334,252.747 370.5,252C 372.063,252.759 373.063,253.926 373.5,255.5C 368.59,254.091 363.59,252.924 358.5,252C 357.331,249.993 356.665,247.827 356.5,245.5 Z"/></g>
<g><path style="opacity:0.463" fill="#082418" d="M 664.5,253.5 C 661.167,256.167 658.167,259.167 655.5,262.5C 654.475,262.103 654.308,261.437 655,260.5C 657.574,257.347 660.574,254.68 664,252.5C 664.399,252.728 664.565,253.062 664.5,253.5 Z"/></g>
<g><path style="opacity:0.505" fill="#010d07" d="M 702.5,255.5 C 703.404,256.209 703.737,257.209 703.5,258.5C 703.5,260.5 703.5,262.5 703.5,264.5C 702.833,264.5 702.167,264.5 701.5,264.5C 701.19,261.287 701.523,258.287 702.5,255.5 Z"/></g>
<g><path style="opacity:0.333" fill="#091f16" d="M 412.5,252.5 C 415.422,254.594 417.922,257.261 420,260.5C 423.442,264.114 426.942,267.448 430.5,270.5C 429.448,270.649 428.448,270.483 427.5,270C 421.472,264.823 416.472,258.99 412.5,252.5 Z"/></g>
<g><path style="opacity:0.796" fill="#093020" d="M 681.5,276.5 C 673.49,274.159 670.324,268.826 672,260.5C 673.251,257.619 675.417,255.786 678.5,255C 674.652,249.652 670.318,249.152 665.5,253.5C 665.5,252.167 665.5,250.833 665.5,249.5C 668.841,248.995 672.174,248.828 675.5,249C 682.238,252.717 682.072,255.884 675,258.5C 672.81,263.028 673.144,267.361 676,271.5C 678.264,272.851 680.098,274.517 681.5,276.5 Z"/></g>
<g><path style="opacity:0.729" fill="#093221" d="M 375.5,256.5 C 377.371,256.859 378.871,257.859 380,259.5C 381.658,262.161 383.324,264.827 385,267.5C 387.141,270.361 387.975,273.361 387.5,276.5C 384.018,269.538 380.018,262.871 375.5,256.5 Z"/></g>
<g><path style="opacity:0.804" fill="#062619" d="M 654.5,263.5 C 653.209,268.209 652.209,272.875 651.5,277.5C 650.362,274.696 650.195,271.696 651,268.5C 651.22,266.027 652.386,264.36 654.5,263.5 Z"/></g>
<g><path style="opacity:0.975" fill="#083a25" d="M 452.5,266.5 C 452.489,268.017 451.823,269.184 450.5,270C 445.19,273.218 439.524,274.052 433.5,272.5C 433.137,271.817 432.804,271.15 432.5,270.5C 436.446,271.527 440.446,271.694 444.5,271C 447.309,269.677 449.975,268.177 452.5,266.5 Z"/></g>
<g><path style="opacity:0.341" fill="#041910" d="M 694.5,271.5 C 693.473,274.858 691.14,276.525 687.5,276.5C 687.369,275.624 687.702,274.957 688.5,274.5C 690.741,273.871 692.741,272.871 694.5,271.5 Z"/></g>
<g><path style="opacity:0.817" fill="#063a26" d="M 166.5,272.5 C 165.167,272.5 163.833,272.5 162.5,272.5C 162.663,277.547 162.329,282.547 161.5,287.5C 160.503,287.53 159.836,287.03 159.5,286C 161.036,281.738 161.536,277.238 161,272.5C 163.008,269.861 164.841,269.861 166.5,272.5 Z"/></g>
<g><path style="opacity:0.29" fill="#09211d" d="M 947.5,274.5 C 947.817,278.702 947.483,282.702 946.5,286.5C 946.419,283.15 946.086,279.65 945.5,276C 945.836,274.97 946.503,274.47 947.5,274.5 Z"/></g>
<g><path style="opacity:0.037" fill="#03140d" d="M 582.5,283.5 C 582.768,285.099 582.434,286.432 581.5,287.5C 580.876,287.083 580.543,286.416 580.5,285.5C 580.747,284.287 581.414,283.62 582.5,283.5 Z"/></g>
<g><path style="opacity:1" fill="#062a1c" d="M 701.5,264.5 C 702.167,264.5 702.833,264.5 703.5,264.5C 703.358,274.225 702.525,283.892 701,293.5C 700.329,294.252 699.496,294.586 698.5,294.5C 700.337,284.631 701.337,274.631 701.5,264.5 Z"/></g>
<g><path style="opacity:0.055" fill="#092f20" d="M 161.5,288.5 C 161.097,291.486 160.097,294.152 158.5,296.5C 158.338,294.473 158.505,292.473 159,290.5C 159.417,289.244 160.25,288.577 161.5,288.5 Z"/></g>
<g><path style="opacity:0.057" fill="#072b1d" d="M 471.5,290.5 C 460.365,292.631 449.031,292.631 437.5,290.5C 436.5,290.833 435.5,291.167 434.5,291.5C 436.934,293.921 438.934,296.588 440.5,299.5C 437.942,297.45 435.442,295.117 433,292.5C 432.594,289.701 433.928,288.367 437,288.5C 448.658,289.093 460.158,289.759 471.5,290.5 Z"/></g>
<g><path style="opacity:0.302" fill="#051710" d="M 390.5,283.5 C 391.496,283.414 392.329,283.748 393,284.5C 395.072,287.971 396.572,291.638 397.5,295.5C 394.677,291.864 392.344,287.864 390.5,283.5 Z"/></g>
<g><path style="opacity:0.616" fill="#072317" d="M 651.5,282.5 C 652.562,288.126 653.895,293.792 655.5,299.5C 654.503,299.53 653.836,299.03 653.5,298C 650.801,292.906 650.134,287.739 651.5,282.5 Z"/></g>
<g><path style="opacity:0.029" fill="#000100" d="M 290.5,292.5 C 290.044,296.664 289.378,300.664 288.5,304.5C 288.335,300.818 288.501,297.152 289,293.5C 289.383,292.944 289.883,292.611 290.5,292.5 Z"/></g>
<g><path style="opacity:0.061" fill="#020c08" d="M 41.5,293.5 C 44.1092,294.443 46.1092,296.11 47.5,298.5C 44.865,297.527 42.865,295.86 41.5,293.5 Z"/></g>
<g><path style="opacity:0.425" fill="#062a1c" d="M 619.5,290.5 C 620.497,290.47 621.164,290.97 621.5,292C 622.729,297.32 625.062,302.487 628.5,307.5C 626.983,307.489 625.816,306.823 625,305.5C 622.027,300.893 620.193,295.893 619.5,290.5 Z"/></g>
<g><path style="opacity:0.351" fill="#08301f" d="M 735.5,262.5 C 735.272,277.795 733.272,292.795 729.5,307.5C 728.876,307.083 728.543,306.416 728.5,305.5C 730.643,290.975 732.976,276.642 735.5,262.5 Z"/></g>
<g><path style="opacity:0.259" fill="#041a13" d="M 49.5,300.5 C 51.153,300.66 52.4863,301.326 53.5,302.5C 52.6868,303.653 51.6868,303.653 50.5,302.5C 49.7025,302.043 49.3691,301.376 49.5,300.5 Z"/></g>
<g><path style="opacity:0.255" fill="#07281c" d="M 118.5,294.5 C 117.57,299.792 114.237,303.459 108.5,305.5C 111.783,301.879 115.116,298.213 118.5,294.5 Z"/></g>
<g><path style="opacity:0.218" fill="#082317" d="M 698.5,296.5 C 698.938,296.435 699.272,296.601 699.5,297C 698.594,299.447 697.761,301.947 697,304.5C 694.561,306.629 692.061,308.629 689.5,310.5C 693.014,306.132 696.014,301.465 698.5,296.5 Z"/></g>
<g><path style="opacity:0.447" fill="#010e09" d="M 657.5,302.5 C 659.5,303.833 661.167,305.5 662.5,307.5C 662.565,307.938 662.399,308.272 662,308.5C 659.873,306.886 658.373,304.886 657.5,302.5 Z"/></g>
<g><path style="opacity:0.88" fill="#082e1f" d="M 70.5,309.5 C 79.1551,310.761 87.8217,310.761 96.5,309.5C 92.893,310.824 88.893,311.491 84.5,311.5C 80.5,311.333 76.5,311.167 72.5,311C 71.5842,310.722 70.9175,310.222 70.5,309.5 Z"/></g>
<g><path style="opacity:1" fill="#0a251a" d="M 450.5,309.5 C 453.473,311.147 456.14,313.147 458.5,315.5C 454.485,315.086 451.818,313.086 450.5,309.5 Z"/></g>
<g><path style="opacity:0.016" fill="#000402" d="M 909.5,311.5 C 909.027,312.906 908.027,313.573 906.5,313.5C 906.973,312.094 907.973,311.427 909.5,311.5 Z"/></g>
<g><path style="opacity:0.208" fill="#072d1d" d="M 400.5,299.5 C 402.017,299.511 403.184,300.177 404,301.5C 406.615,305.783 409.615,309.783 413,313.5C 413.692,314.437 413.525,315.103 412.5,315.5C 410.537,314.04 408.704,312.373 407,310.5C 404.835,306.838 402.669,303.171 400.5,299.5 Z"/></g>
<g><path style="opacity:0.8" fill="#09281b" d="M 664.5,310.5 C 668.404,311.749 672.404,312.749 676.5,313.5C 680.13,312.574 683.797,311.907 687.5,311.5C 679.666,315.564 671.999,315.231 664.5,310.5 Z"/></g>
<g><path style="opacity:0.475" fill="#061b12" d="M 729.5,308.5 C 727.906,314.426 724.239,318.426 718.5,320.5C 721.475,315.859 725.142,311.859 729.5,308.5 Z"/></g>
<g><path style="opacity:0.022" fill="#000000" d="M 946.5,320.5 C 945.6,330.802 945.267,341.135 945.5,351.5C 944.834,346.511 944.501,341.344 944.5,336C 944.505,330.454 945.172,325.288 946.5,320.5 Z"/></g>
<g><path style="opacity:1" fill="#062e1e" d="M 472.5,321.5 C 479.5,322.833 486.5,322.833 493.5,321.5C 493.423,322.75 492.756,323.583 491.5,324C 485.833,324.667 480.167,324.667 474.5,324C 473.244,323.583 472.577,322.75 472.5,321.5 Z"/></g>
<g><path style="opacity:0.959" fill="#0b2519" d="M 712.5,324.5 C 709.912,326.625 706.912,327.958 703.5,328.5C 705.848,325.847 708.848,324.513 712.5,324.5 Z"/></g>
<g><path style="opacity:0.029" fill="#010e09" d="M 581.5,327.5 C 581.784,329.415 581.451,331.081 580.5,332.5C 579.07,330.545 579.403,328.879 581.5,327.5 Z"/></g>
<g><path style="opacity:0.224" fill="#092919" d="M 425.5,328.5 C 429.627,328.635 432.294,330.635 433.5,334.5C 430.467,332.984 427.8,330.984 425.5,328.5 Z"/></g>
<g><path style="opacity:0.153" fill="#053220" d="M 658.5,328.5 C 667.981,329.659 677.314,330.992 686.5,332.5C 677.745,332.866 669.078,332.199 660.5,330.5C 659.287,330.253 658.62,329.586 658.5,328.5 Z"/></g>
<g><path style="opacity:0.09" fill="#062418" d="M 699.5,330.5 C 696.781,331.913 693.781,332.58 690.5,332.5C 691.464,330.595 693.131,329.595 695.5,329.5C 697.087,330.352 698.42,330.686 699.5,330.5 Z"/></g>
<g><path style="opacity:0.094" fill="#02130a" d="M 514.5,329.5 C 513.833,332.167 512.167,333.833 509.5,334.5C 509.963,331.745 511.63,330.078 514.5,329.5 Z"/></g>
<g><path style="opacity:0.113" fill="#000000" d="M 198.5,335.5 C 198.665,339.182 198.499,342.848 198,346.5C 197.617,347.056 197.117,347.389 196.5,347.5C 195.911,343.029 196.577,339.029 198.5,335.5 Z"/></g>
<g><path style="opacity:0.769" fill="#092b1c" d="M 508.5,334.5 C 506.421,336.873 503.754,338.206 500.5,338.5C 502.339,335.865 505.006,334.532 508.5,334.5 Z"/></g>
<g><path style="opacity:0.03" fill="#06221f" d="M 288.5,330.5 C 288.568,334.68 288.901,339.013 289.5,343.5C 289.253,344.713 288.586,345.38 287.5,345.5C 287.179,340.305 287.513,335.305 288.5,330.5 Z"/></g>
<g><path style="opacity:0.459" fill="#0a271b" d="M 787.5,350.5 C 786.848,351.725 785.681,352.392 784,352.5C 782.615,352.486 781.449,352.152 780.5,351.5C 782.607,350.532 784.941,350.198 787.5,350.5 Z"/></g>
<g><path style="opacity:0.027" fill="#010704" d="M 896.5,375.5 C 898.153,375.66 899.486,376.326 900.5,377.5C 898.517,377.843 897.183,377.176 896.5,375.5 Z"/></g>
<g><path style="opacity:0.006" fill="#000301" d="M 546.5,375.5 C 546.027,376.906 545.027,377.573 543.5,377.5C 543.973,376.094 544.973,375.427 546.5,375.5 Z"/></g>
<g><path style="opacity:0.998" fill="#065134" d="M 806.5,381.5 C 806.767,386.334 806.434,391.334 805.5,396.5C 819.171,396.667 832.837,396.5 846.5,396C 848.863,395.411 849.863,393.911 849.5,391.5C 852.541,391.406 854.207,392.906 854.5,396C 861.992,397.29 862.326,399.457 855.5,402.5C 854.861,403.097 854.528,403.93 854.5,405C 856.062,410.412 857.062,415.912 857.5,421.5C 857.5,423.833 857.5,426.167 857.5,428.5C 857.832,432.676 856.498,436.176 853.5,439C 849.535,439.525 847.869,437.691 848.5,433.5C 850.074,433.063 851.241,432.063 852,430.5C 852.947,425.96 852.447,421.626 850.5,417.5C 849.378,416.37 848.044,415.703 846.5,415.5C 845.833,415.5 845.167,415.5 844.5,415.5C 842.636,414.207 840.636,414.207 838.5,415.5C 841.475,423.137 841.142,430.471 837.5,437.5C 837.158,438.338 836.492,438.672 835.5,438.5C 832.833,438.833 830.167,439.167 827.5,439.5C 817.505,438.192 813.339,432.525 815,422.5C 815.424,419.975 816.59,417.975 818.5,416.5C 820.371,416.141 821.871,415.141 823,413.5C 823.779,411.486 823.612,410.486 822.5,410.5C 821.314,409.295 821.314,407.961 822.5,406.5C 825.881,406.46 829.214,406.793 832.5,407.5C 837.769,408.269 843.102,409.269 848.5,410.5C 848.663,408.143 848.497,405.81 848,403.5C 846.829,402.107 845.329,401.273 843.5,401C 830.833,400.333 818.167,400.333 805.5,401C 804.424,402.726 804.257,404.559 805,406.5C 805.586,409.019 806.753,411.019 808.5,412.5C 809.341,414.379 809.675,416.379 809.5,418.5C 810.1,425.442 808.766,431.942 805.5,438C 804.207,438.49 802.873,438.657 801.5,438.5C 802.702,434.952 803.369,431.285 803.5,427.5C 803.5,427.167 803.5,426.833 803.5,426.5C 803.665,423.482 803.498,420.482 803,417.5C 802.722,416.584 802.222,415.918 801.5,415.5C 801.5,415.167 801.5,414.833 801.5,414.5C 802.089,409.34 800.755,404.84 797.5,401C 795.167,400.333 792.833,400.333 790.5,401C 789.199,402.616 789.199,404.116 790.5,405.5C 790.5,406.167 790.5,406.833 790.5,407.5C 791.335,415.832 791.835,424.166 792,432.5C 790.916,433.665 790.083,434.998 789.5,436.5C 788.311,437.429 786.978,437.762 785.5,437.5C 785.5,436.167 785.5,434.833 785.5,433.5C 785.5,433.167 785.5,432.833 785.5,432.5C 786.303,431.577 786.47,430.577 786,429.5C 779.851,434.526 773.184,435.526 766,432.5C 765.536,433.094 765.369,433.761 765.5,434.5C 764.784,436.556 764.117,438.723 763.5,441C 759.807,442.176 757.474,441.009 756.5,437.5C 757.573,436.749 757.74,435.749 757,434.5C 756.388,431.885 754.888,430.219 752.5,429.5C 751.5,429.167 750.833,428.5 750.5,427.5C 748.949,425.018 747.616,425.352 746.5,428.5C 745.547,430.61 743.881,431.777 741.5,432C 738.5,432.667 735.5,432.667 732.5,432C 731.944,431.617 731.611,431.117 731.5,430.5C 729.121,425.095 728.121,419.428 728.5,413.5C 729.11,411.566 730.11,409.899 731.5,408.5C 734.215,406.877 737.215,406.21 740.5,406.5C 743.338,407.17 745.838,408.504 748,410.5C 750.109,406.877 749.942,403.377 747.5,400C 741.843,399.501 736.176,399.334 730.5,399.5C 726.03,398.514 721.363,398.181 716.5,398.5C 715.902,404.901 717.068,410.901 720,416.5C 719.792,422.671 719.959,428.671 720.5,434.5C 721.995,434.989 723.329,435.655 724.5,436.5C 724.281,437.675 724.614,438.675 725.5,439.5C 727.409,440.348 729.409,440.682 731.5,440.5C 731.822,442.722 731.155,444.556 729.5,446C 730.094,446.464 730.761,446.631 731.5,446.5C 731.5,446.833 731.5,447.167 731.5,447.5C 727.894,450.024 725.228,453.357 723.5,457.5C 713.656,461.01 704.489,459.677 696,453.5C 693.12,450.105 692.953,446.771 695.5,443.5C 697.004,446.951 699.671,448.951 703.5,449.5C 704.609,449.557 705.609,449.89 706.5,450.5C 706.5,451.5 706.5,452.5 706.5,453.5C 711.556,454.715 716.556,454.382 721.5,452.5C 721.023,451.522 720.357,450.689 719.5,450C 716.74,449.326 714.073,448.493 711.5,447.5C 712.695,438.37 714.195,429.37 716,420.5C 711.822,416.386 707.989,416.72 704.5,421.5C 703.522,421.811 702.855,422.478 702.5,423.5C 703.251,425.996 704.251,428.33 705.5,430.5C 704.761,433.652 704.761,436.985 705.5,440.5C 703.61,440.703 702.11,440.037 701,438.5C 699.332,433.078 697.165,427.911 694.5,423C 693.5,422.333 692.5,422.333 691.5,423C 688.553,425.436 686.22,428.269 684.5,431.5C 681.222,433.006 678.222,432.673 675.5,430.5C 674.674,428.736 673.341,427.402 671.5,426.5C 667.084,416.649 669.584,408.982 679,403.5C 681.03,403.954 682.863,404.62 684.5,405.5C 685.514,406.674 686.847,407.34 688.5,407.5C 689.583,407.539 690.583,407.873 691.5,408.5C 692.787,405.291 692.787,402.125 691.5,399C 683.833,398.667 676.167,398.333 668.5,398C 665.552,396.99 664.886,395.157 666.5,392.5C 673.803,391.503 681.137,391.169 688.5,391.5C 689.451,390.081 689.784,388.415 689.5,386.5C 691.288,386.215 692.955,386.548 694.5,387.5C 695.418,389.839 697.084,391.339 699.5,392C 702.833,392.667 706.167,392.667 709.5,392C 710.056,391.617 710.389,391.117 710.5,390.5C 711.241,387.659 712.908,385.659 715.5,384.5C 716.442,384.608 717.275,384.941 718,385.5C 718.495,387.473 718.662,389.473 718.5,391.5C 727.485,392.166 736.485,392.499 745.5,392.5C 745.124,389.381 746.291,387.047 749,385.5C 750.03,385.836 750.53,386.503 750.5,387.5C 751.207,389.781 752.207,391.948 753.5,394C 760.158,394.5 766.825,394.666 773.5,394.5C 775.167,394.5 776.833,394.5 778.5,394.5C 779.496,394.586 780.329,394.252 781,393.5C 781.499,389.848 781.665,386.182 781.5,382.5C 786.075,374.571 792.742,372.405 801.5,376C 803.686,377.412 805.352,379.245 806.5,381.5 Z M 799.5,390.5 C 798.89,391.391 798.557,392.391 798.5,393.5C 796.516,394.694 794.516,394.694 792.5,393.5C 791.991,390.778 790.657,388.612 788.5,387C 790.571,382.195 793.738,381.028 798,383.5C 799.202,385.677 799.702,388.011 799.5,390.5 Z M 708.5,398.5 C 710.048,401.545 711.048,404.878 711.5,408.5C 710.533,409.984 709.2,410.984 707.5,411.5C 704.808,412.009 702.308,413.009 700,414.5C 700.192,409.201 700.359,403.867 700.5,398.5C 703.167,398.5 705.833,398.5 708.5,398.5 Z M 759.5,400.5 C 767.26,400.195 774.927,400.862 782.5,402.5C 779.893,403.318 777.226,403.818 774.5,404C 772.68,404.2 771.347,405.034 770.5,406.5C 767.55,408.115 764.884,410.115 762.5,412.5C 759.39,415.402 757.89,419.068 758,423.5C 757.051,421.907 755.885,420.574 754.5,419.5C 756.328,412.974 757.995,406.641 759.5,400.5 Z M 782.5,412.5 C 783.728,413.306 784.728,414.306 785.5,415.5C 785.66,417.199 785.494,418.866 785,420.5C 782.937,422.734 780.771,424.734 778.5,426.5C 768.18,430.564 764.846,427.564 768.5,417.5C 771.004,415.856 773.671,414.356 776.5,413C 778.473,412.505 780.473,412.338 782.5,412.5 Z M 686.5,418.5 C 684.628,420.604 682.295,421.937 679.5,422.5C 676.724,419.49 677.058,416.656 680.5,414C 684.112,413.467 686.112,414.967 686.5,418.5 Z M 742.5,420.5 C 741.5,420.833 740.833,421.5 740.5,422.5C 734.558,424.197 733.058,422.197 736,416.5C 736.837,414.993 738.004,414.493 739.5,415C 740.868,416.34 742.201,417.674 743.5,419C 743.43,419.765 743.097,420.265 742.5,420.5 Z M 828.5,417.5 C 831.595,417.626 833.428,419.293 834,422.5C 835.576,430.087 832.743,433.087 825.5,431.5C 825.5,430.833 825.167,430.5 824.5,430.5C 823.61,428.218 823.444,425.885 824,423.5C 825.332,421.34 826.832,419.34 828.5,417.5 Z"/></g>
<g><path style="opacity:0.09" fill="#082d1d" d="M 799.5,390.5 C 799.702,388.011 799.202,385.677 798,383.5C 793.738,381.028 790.571,382.195 788.5,387C 790.657,388.612 791.991,390.778 792.5,393.5C 794.516,394.694 796.516,394.694 798.5,393.5C 799.774,394.189 799.774,395.023 798.5,396C 795.854,396.497 793.187,396.664 790.5,396.5C 790.682,394.409 790.348,392.409 789.5,390.5C 788.675,389.614 787.675,389.281 786.5,389.5C 786.282,384.219 788.782,381.219 794,380.5C 800.508,381.858 802.341,385.191 799.5,390.5 Z"/></g>
<g><path style="opacity:0.998" fill="#065134" d="M 648.5,391.5 C 649.153,392.807 649.82,394.14 650.5,395.5C 648.368,396.598 646.202,397.598 644,398.5C 643.204,401.039 643.371,403.372 644.5,405.5C 646.732,411.663 648.732,417.996 650.5,424.5C 649.691,426.071 649.357,427.738 649.5,429.5C 644.946,434.174 645.946,437.674 652.5,440C 655.146,440.497 657.813,440.664 660.5,440.5C 660.5,440.833 660.5,441.167 660.5,441.5C 659.504,441.414 658.671,441.748 658,442.5C 656.804,450.361 652.97,456.361 646.5,460.5C 641.13,460.608 635.797,460.275 630.5,459.5C 627.386,459.445 625.052,458.112 623.5,455.5C 624.043,455.44 624.376,455.107 624.5,454.5C 622.914,452.827 622.247,450.827 622.5,448.5C 625.833,449.833 629.167,451.167 632.5,452.5C 635.37,453.634 638.37,454.3 641.5,454.5C 649.785,453.44 650.119,452.273 642.5,451C 641.299,450.097 640.465,448.931 640,447.5C 640.09,440.287 640.923,433.121 642.5,426C 642.381,421.068 641.047,416.568 638.5,412.5C 630.799,408.727 624.632,410.394 620,417.5C 619.833,419.333 619.667,421.167 619.5,423C 619.547,425.295 620.213,427.129 621.5,428.5C 621.183,431.546 622.516,433.213 625.5,433.5C 627.377,434.659 627.877,436.326 627,438.5C 622.095,441.309 618.595,439.976 616.5,434.5C 615.674,431.515 614.341,428.849 612.5,426.5C 612.5,424.167 612.5,421.833 612.5,419.5C 613.281,416.604 614.615,413.937 616.5,411.5C 616.5,409.5 617.5,408.5 619.5,408.5C 621.966,407.702 623.966,406.369 625.5,404.5C 629.061,403.77 632.727,403.103 636.5,402.5C 637.434,401.432 637.768,400.099 637.5,398.5C 623.121,397.542 609.121,398.875 595.5,402.5C 595.167,402.5 594.833,402.5 594.5,402.5C 588.824,402.334 583.157,402.501 577.5,403C 574.399,403.638 571.732,404.805 569.5,406.5C 568.886,410.816 569.219,415.15 570.5,419.5C 571.767,427.17 571.767,434.837 570.5,442.5C 569.91,445.031 568.41,446.698 566,447.5C 564.624,447.316 563.791,446.649 563.5,445.5C 563.993,443.194 564.326,440.861 564.5,438.5C 562.821,438.285 561.821,438.952 561.5,440.5C 558.515,441.326 555.849,442.659 553.5,444.5C 543.658,448.083 537.992,444.75 536.5,434.5C 536.447,431.215 537.114,428.215 538.5,425.5C 541.592,423.373 544.258,420.707 546.5,417.5C 548.795,416.568 551.129,415.735 553.5,415C 554.252,414.329 554.586,413.496 554.5,412.5C 556.626,411.952 558.626,411.285 560.5,410.5C 561.928,408.623 561.428,407.289 559,406.5C 553.152,407.377 547.319,408.377 541.5,409.5C 540.287,409.747 539.62,410.414 539.5,411.5C 539.167,411.5 538.833,411.5 538.5,411.5C 535.224,410.47 531.89,410.803 528.5,412.5C 527.212,414.299 527.212,415.965 528.5,417.5C 529.883,422.416 530.883,427.416 531.5,432.5C 531.5,435.167 531.5,437.833 531.5,440.5C 531.58,443.781 530.913,446.781 529.5,449.5C 527.967,450.431 526.3,451.098 524.5,451.5C 522.962,451.547 521.962,450.88 521.5,449.5C 521.5,448.833 521.5,448.167 521.5,447.5C 525.515,444.876 526.515,441.209 524.5,436.5C 523.675,435.614 522.675,435.281 521.5,435.5C 521.167,435.5 520.833,435.5 520.5,435.5C 520.441,433.278 519.275,432.278 517,432.5C 513.799,433.238 512.299,435.238 512.5,438.5C 511.513,445.452 507.846,450.452 501.5,453.5C 501.631,452.624 501.298,451.957 500.5,451.5C 492.763,453.969 488.096,451.303 486.5,443.5C 487.063,439.471 488.396,435.804 490.5,432.5C 490.833,431.5 491.5,430.833 492.5,430.5C 496.441,429.243 500.441,428.076 504.5,427C 500.843,427.108 497.177,427.108 493.5,427C 488.962,425.287 487.462,422.12 489,417.5C 489.967,414.379 491.8,412.046 494.5,410.5C 501.001,408.739 507.001,409.739 512.5,413.5C 512.335,417.182 512.501,420.848 513,424.5C 514.848,427.041 517.348,428.041 520.5,427.5C 521.601,428.598 522.934,428.765 524.5,428C 523.712,424.924 523.212,421.758 523,418.5C 521.77,415.964 519.937,413.964 517.5,412.5C 520.065,408.687 522.899,405.021 526,401.5C 526.772,401.645 527.439,401.978 528,402.5C 528.333,403.833 528.667,405.167 529,406.5C 535.83,405.978 542.83,404.978 550,403.5C 551.681,403.392 552.848,402.725 553.5,401.5C 558.575,401.631 561.908,399.298 563.5,394.5C 564.5,394.167 565.5,393.833 566.5,393.5C 568.03,393.64 569.03,394.307 569.5,395.5C 569.5,396.833 569.5,398.167 569.5,399.5C 577.163,399.022 584.83,398.522 592.5,398C 598.258,397.555 603.592,396.388 608.5,394.5C 617.173,394.666 625.84,394.5 634.5,394C 635.563,392.812 636.897,392.312 638.5,392.5C 638.737,391.209 638.404,390.209 637.5,389.5C 637.163,386.17 638.663,384.504 642,384.5C 643.167,384.833 644.333,385.167 645.5,385.5C 645.771,388.047 646.771,390.047 648.5,391.5 Z M 636.5,402.5 C 632.727,403.103 629.061,403.77 625.5,404.5C 622.392,404.375 620.392,405.708 619.5,408.5C 617.5,408.5 616.5,409.5 616.5,411.5C 615.883,411.611 615.383,411.944 615,412.5C 610.672,405.782 604.672,403.782 597,406.5C 593.239,405.381 589.406,404.714 585.5,404.5C 588.5,403.833 591.5,403.167 594.5,402.5C 594.833,402.5 595.167,402.5 595.5,402.5C 608.822,401.213 622.156,400.379 635.5,400C 636.252,400.671 636.586,401.504 636.5,402.5 Z M 561.5,419.5 C 561.5,419.833 561.5,420.167 561.5,420.5C 563.218,422.926 563.718,425.593 563,428.5C 560.96,430.37 559.127,432.37 557.5,434.5C 553.975,436.132 550.308,436.966 546.5,437C 545.106,436.044 544.439,434.711 544.5,433C 544.954,431.061 545.621,429.228 546.5,427.5C 547.833,425.833 549.167,424.167 550.5,422.5C 554.086,421.207 557.752,420.207 561.5,419.5 Z M 498.5,416.5 C 499.995,416.415 500.995,417.081 501.5,418.5C 500.15,419.95 498.484,420.617 496.5,420.5C 496.527,418.801 497.194,417.467 498.5,416.5 Z M 590.5,421.5 C 596.311,423.143 597.811,426.81 595,432.5C 590.43,435.633 587.597,434.466 586.5,429C 586.927,425.977 588.261,423.477 590.5,421.5 Z M 501.5,443.5 C 496.945,446.649 493.945,445.649 492.5,440.5C 494.886,439.627 496.886,438.127 498.5,436C 500.74,435.023 503.073,434.523 505.5,434.5C 504.977,437.878 503.644,440.878 501.5,443.5 Z"/></g>
<g><path style="opacity:1" fill="#092d1e" d="M 710.5,390.5 C 710.389,391.117 710.056,391.617 709.5,392C 706.167,392.667 702.833,392.667 699.5,392C 697.084,391.339 695.418,389.839 694.5,387.5C 692.955,386.548 691.288,386.215 689.5,386.5C 689.784,388.415 689.451,390.081 688.5,391.5C 687.412,385.075 689.745,382.908 695.5,385C 696.069,387.903 697.735,389.903 700.5,391C 703.888,391.659 707.221,391.492 710.5,390.5 Z"/></g>
<g><path style="opacity:0.271" fill="#010908" d="M 781.5,382.5 C 781.665,386.182 781.499,389.848 781,393.5C 780.329,394.252 779.496,394.586 778.5,394.5C 778.921,390.251 779.921,386.251 781.5,382.5 Z"/></g>
<g><path style="opacity:0.961" fill="#093020" d="M 750.5,387.5 C 752.628,389.446 754.961,391.279 757.5,393C 763.016,393.173 768.349,393.673 773.5,394.5C 766.825,394.666 760.158,394.5 753.5,394C 752.207,391.948 751.207,389.781 750.5,387.5 Z"/></g>
<g><path style="opacity:0.737" fill="#000201" d="M 861.5,401.5 C 861.5,401.167 861.5,400.833 861.5,400.5C 863.041,397.445 865.208,394.779 868,392.5C 877.576,391.396 883.076,395.729 884.5,405.5C 882.054,414.166 876.388,417.333 867.5,415C 862.137,412.09 860.137,407.59 861.5,401.5 Z"/></g>
<g><path style="opacity:0.855" fill="#093523" d="M 637.5,389.5 C 638.404,390.209 638.737,391.209 638.5,392.5C 636.897,392.312 635.563,392.812 634.5,394C 625.84,394.5 617.173,394.666 608.5,394.5C 616.976,393.248 625.643,392.415 634.5,392C 635.691,391.302 636.691,390.469 637.5,389.5 Z"/></g>
<g><path style="opacity:0.038" fill="#000000" d="M 421.5,395.5 C 420.329,396.345 418.995,397.011 417.5,397.5C 418.183,395.824 419.517,395.157 421.5,395.5 Z"/></g>
<g><path style="opacity:0.264" fill="#062f1e" d="M 806.5,381.5 C 808.654,385.582 808.987,389.916 807.5,394.5C 819.82,395.666 832.153,395.833 844.5,395C 846.53,392.766 848.863,390.933 851.5,389.5C 852.442,389.608 853.275,389.941 854,390.5C 854.817,394.319 857.15,396.319 861,396.5C 861.49,397.793 861.657,399.127 861.5,400.5C 861.5,400.833 861.5,401.167 861.5,401.5C 859.621,402.341 857.621,402.675 855.5,402.5C 862.326,399.457 861.992,397.29 854.5,396C 854.207,392.906 852.541,391.406 849.5,391.5C 849.863,393.911 848.863,395.411 846.5,396C 832.837,396.5 819.171,396.667 805.5,396.5C 806.434,391.334 806.767,386.334 806.5,381.5 Z"/></g>
<g><path style="opacity:0.19" fill="#011009" d="M 472.5,400.5 C 468.762,398.583 464.762,398.083 460.5,399C 458.907,399.949 457.574,401.115 456.5,402.5C 455.039,403.686 453.705,403.686 452.5,402.5C 454.932,401.25 457.266,399.75 459.5,398C 463.211,396.291 466.878,396.291 470.5,398C 471.381,398.708 472.047,399.542 472.5,400.5 Z"/></g>
<g><path style="opacity:0.584" fill="#07301f" d="M 608.5,394.5 C 603.592,396.388 598.258,397.555 592.5,398C 584.83,398.522 577.163,399.022 569.5,399.5C 569.5,398.167 569.5,396.833 569.5,395.5C 570.404,396.209 570.737,397.209 570.5,398.5C 583.126,396.801 595.793,395.467 608.5,394.5 Z"/></g>
<g><path style="opacity:0.624" fill="#092317" d="M 648.5,391.5 C 651.857,392.121 653.024,394.121 652,397.5C 649.546,398.198 647.213,399.198 645,400.5C 644.506,402.134 644.34,403.801 644.5,405.5C 643.371,403.372 643.204,401.039 644,398.5C 646.202,397.598 648.368,396.598 650.5,395.5C 649.82,394.14 649.153,392.807 648.5,391.5 Z"/></g>
<g><path style="opacity:1" fill="#065235" d="M 472.5,400.5 C 473.39,402.782 473.556,405.115 473,407.5C 472.439,408.022 471.772,408.355 471,408.5C 469.923,407.571 468.756,406.904 467.5,406.5C 467.167,406.5 466.833,406.5 466.5,406.5C 466.209,405.351 465.376,404.684 464,404.5C 462.624,404.684 461.791,405.351 461.5,406.5C 460.007,407.312 459.34,408.645 459.5,410.5C 459.436,412.557 460.102,414.223 461.5,415.5C 462.145,416.812 463.145,417.812 464.5,418.5C 465.429,419.689 465.762,421.022 465.5,422.5C 463.278,422.178 461.444,422.845 460,424.5C 459.333,428.167 459.333,431.833 460,435.5C 460.383,436.056 460.883,436.389 461.5,436.5C 462.833,444.167 462.833,451.833 461.5,459.5C 459.858,461.081 457.858,461.747 455.5,461.5C 455.799,459.396 455.466,457.396 454.5,455.5C 448.156,459.836 441.156,461.836 433.5,461.5C 432.167,459.5 430.5,457.833 428.5,456.5C 427.84,455.036 427.507,453.369 427.5,451.5C 427.316,448.795 427.983,446.462 429.5,444.5C 433.548,439.785 437.881,435.452 442.5,431.5C 442.833,431.5 443.167,431.5 443.5,431.5C 446.281,431.906 449.281,431.906 452.5,431.5C 452.5,429.833 452.5,428.167 452.5,426.5C 449.615,426.194 446.948,426.527 444.5,427.5C 439.586,427.362 434.919,428.028 430.5,429.5C 426.84,429.159 423.507,429.825 420.5,431.5C 420.167,432.167 419.833,432.833 419.5,433.5C 418.371,435.628 418.204,437.961 419,440.5C 420.082,442.618 421.249,444.618 422.5,446.5C 423.15,453.791 422.15,460.791 419.5,467.5C 417.335,467.884 415.668,467.217 414.5,465.5C 417.312,461.148 417.979,456.481 416.5,451.5C 415.042,450.218 413.708,450.218 412.5,451.5C 408.378,451.976 405.378,453.976 403.5,457.5C 406.23,462.085 407.564,467.085 407.5,472.5C 406.022,472.762 404.689,472.429 403.5,471.5C 402.491,465.465 399.491,460.798 394.5,457.5C 391.656,459.845 388.99,462.345 386.5,465C 383.518,465.498 380.518,465.665 377.5,465.5C 376.438,462.622 374.438,460.622 371.5,459.5C 370.167,456.833 370.167,454.167 371.5,451.5C 372.921,448.242 375.254,445.742 378.5,444C 383.274,443.346 387.94,443.846 392.5,445.5C 396.14,442.138 396.474,438.305 393.5,434C 385.175,434.221 376.842,434.721 368.5,435.5C 368.5,434.167 368.5,432.833 368.5,431.5C 376.132,430.558 383.799,429.892 391.5,429.5C 391.5,427.5 391.5,425.5 391.5,423.5C 393.5,423.5 395.5,423.5 397.5,423.5C 397.511,425.017 398.177,426.184 399.5,427C 406.52,429.124 411.854,427.124 415.5,421C 416.448,420.517 417.448,420.351 418.5,420.5C 418.5,422.167 418.5,423.833 418.5,425.5C 422.697,425.571 426.863,425.237 431,424.5C 432.681,424.392 433.848,423.725 434.5,422.5C 438.859,422.534 443.192,422.201 447.5,421.5C 449.333,421.415 450.666,420.748 451.5,419.5C 452.586,419.38 453.253,418.713 453.5,417.5C 453,415.5 452.5,413.5 452,411.5C 451.329,410.748 450.496,410.414 449.5,410.5C 444.291,410.848 439.124,411.514 434,412.5C 431.134,412.7 428.634,412.033 426.5,410.5C 425.699,408.958 425.366,407.292 425.5,405.5C 432.79,405.93 439.957,405.264 447,403.5C 448.984,403.926 450.984,404.26 453,404.5C 454.681,404.392 455.848,403.725 456.5,402.5C 457.574,401.115 458.907,399.949 460.5,399C 464.762,398.083 468.762,398.583 472.5,400.5 Z M 407.5,432.5 C 408.5,432.5 409.5,432.5 410.5,432.5C 411.917,435.998 412.583,439.665 412.5,443.5C 408.5,444.054 404.834,445.387 401.5,447.5C 401.999,443.51 402.499,439.51 403,435.5C 404.409,434.219 405.909,433.219 407.5,432.5 Z M 443.5,454.5 C 437.725,455.179 435.392,452.846 436.5,447.5C 436.5,447.167 436.5,446.833 436.5,446.5C 438.63,444.873 440.63,443.04 442.5,441C 444.96,440.019 447.46,439.185 450,438.5C 451.107,438.585 452.107,438.919 453,439.5C 453.706,441.971 453.373,444.305 452,446.5C 449.224,449.449 446.391,452.116 443.5,454.5 Z M 388.5,453.5 C 387.833,454.5 387.167,455.5 386.5,456.5C 384.742,456.877 383.075,457.544 381.5,458.5C 380.817,458.137 380.15,457.804 379.5,457.5C 379.191,451.29 381.858,449.124 387.5,451C 388.252,451.671 388.586,452.504 388.5,453.5 Z"/></g>
<g><path style="opacity:0.804" fill="#092b1c" d="M 636.5,402.5 C 636.586,401.504 636.252,400.671 635.5,400C 622.156,400.379 608.822,401.213 595.5,402.5C 609.121,398.875 623.121,397.542 637.5,398.5C 637.768,400.099 637.434,401.432 636.5,402.5 Z"/></g>
<g><path style="opacity:0.766" fill="#092b1d" d="M 759.5,400.5 C 766.989,399.344 774.655,399.178 782.5,400C 783.406,401.699 783.739,403.533 783.5,405.5C 779.131,405.467 774.798,405.8 770.5,406.5C 771.347,405.034 772.68,404.2 774.5,404C 777.226,403.818 779.893,403.318 782.5,402.5C 774.927,400.862 767.26,400.195 759.5,400.5 Z"/></g>
<g><path style="opacity:0.871" fill="#083c27" d="M 832.5,407.5 C 837.099,407.2 841.599,407.533 846,408.5C 846.863,406.251 846.363,404.418 844.5,403C 831.833,402.333 819.167,402.333 806.5,403C 807.432,406.085 808.099,409.252 808.5,412.5C 806.753,411.019 805.586,409.019 805,406.5C 804.257,404.559 804.424,402.726 805.5,401C 818.167,400.333 830.833,400.333 843.5,401C 845.329,401.273 846.829,402.107 848,403.5C 848.497,405.81 848.663,408.143 848.5,410.5C 843.102,409.269 837.769,408.269 832.5,407.5 Z"/></g>
<g><path style="opacity:1" fill="#055235" d="M 871.5,398.5 C 878.702,399.773 880.368,403.606 876.5,410C 868.905,411.93 865.738,409.097 867,401.5C 868.409,400.219 869.909,399.219 871.5,398.5 Z"/></g>
<g><path style="opacity:0.757" fill="#08281a" d="M 708.5,398.5 C 705.833,398.5 703.167,398.5 700.5,398.5C 700.359,403.867 700.192,409.201 700,414.5C 702.308,413.009 704.808,412.009 707.5,411.5C 705.165,414.165 702.165,415.498 698.5,415.5C 699.11,409.185 699.443,402.851 699.5,396.5C 703.012,395.945 706.012,396.612 708.5,398.5 Z"/></g>
<g><path style="opacity:0.471" fill="#072317" d="M 801.5,414.5 C 799.53,410.653 797.863,406.486 796.5,402C 792.78,400.608 790.78,401.775 790.5,405.5C 789.199,404.116 789.199,402.616 790.5,401C 792.833,400.333 795.167,400.333 797.5,401C 800.755,404.84 802.089,409.34 801.5,414.5 Z"/></g>
<g><path style="opacity:0.96" fill="#0b291b" d="M 594.5,402.5 C 591.5,403.167 588.5,403.833 585.5,404.5C 580.044,404.518 574.711,405.185 569.5,406.5C 571.732,404.805 574.399,403.638 577.5,403C 583.157,402.501 588.824,402.334 594.5,402.5 Z"/></g>
<g><path style="opacity:0.608" fill="#082418" d="M 452.5,402.5 C 453.705,403.686 455.039,403.686 456.5,402.5C 455.848,403.725 454.681,404.392 453,404.5C 450.984,404.26 448.984,403.926 447,403.5C 439.957,405.264 432.79,405.93 425.5,405.5C 425.366,407.292 425.699,408.958 426.5,410.5C 424.234,408.807 423.9,406.64 425.5,404C 428.518,403.501 431.518,403.668 434.5,404.5C 438.944,403.264 443.444,402.264 448,401.5C 449.592,401.605 451.092,401.939 452.5,402.5 Z"/></g>
<g><path style="opacity:0.376" fill="#02130c" d="M 466.5,406.5 C 464.901,405.438 463.234,405.438 461.5,406.5C 461.791,405.351 462.624,404.684 464,404.5C 465.376,404.684 466.209,405.351 466.5,406.5 Z"/></g>
<g><path style="opacity:0.417" fill="#000503" d="M 585.5,404.5 C 589.406,404.714 593.239,405.381 597,406.5C 604.672,403.782 610.672,405.782 615,412.5C 615.383,411.944 615.883,411.611 616.5,411.5C 614.615,413.937 613.281,416.604 612.5,419.5C 609.779,418.859 607.112,418.359 604.5,418C 608.428,427.536 606.762,435.87 599.5,443C 591.116,447.224 583.949,445.724 578,438.5C 575.008,430 576.341,422.333 582,415.5C 581.799,411.271 582.966,407.604 585.5,404.5 Z M 590.5,421.5 C 588.261,423.477 586.927,425.977 586.5,429C 587.597,434.466 590.43,435.633 595,432.5C 597.811,426.81 596.311,423.143 590.5,421.5 Z"/></g>
<g><path style="opacity:0.058" fill="#000603" d="M 740.5,406.5 C 737.215,406.21 734.215,406.877 731.5,408.5C 733.935,404.453 736.935,403.786 740.5,406.5 Z"/></g>
<g><path style="opacity:0.763" fill="#072116" d="M 553.5,401.5 C 552.848,402.725 551.681,403.392 550,403.5C 542.83,404.978 535.83,405.978 529,406.5C 528.667,405.167 528.333,403.833 528,402.5C 527.439,401.978 526.772,401.645 526,401.5C 522.899,405.021 520.065,408.687 517.5,412.5C 516.427,411.749 516.26,410.749 517,409.5C 519.274,406.467 521.441,403.3 523.5,400C 527.547,398.852 529.547,400.352 529.5,404.5C 537.5,403.5 545.5,402.5 553.5,401.5 Z"/></g>
<g><path style="opacity:0.004" fill="#000100" d="M 684.5,405.5 C 686.38,405.229 687.713,405.896 688.5,407.5C 686.847,407.34 685.514,406.674 684.5,405.5 Z"/></g>
<g><path style="opacity:0.671" fill="#072516" d="M 832.5,407.5 C 829.214,406.793 825.881,406.46 822.5,406.5C 826.041,403.752 829.374,404.085 832.5,407.5 Z"/></g>
<g><path style="opacity:0.686" fill="#041d13" d="M 625.5,404.5 C 623.966,406.369 621.966,407.702 619.5,408.5C 620.392,405.708 622.392,404.375 625.5,404.5 Z"/></g>
<g><path style="opacity:0.757" fill="#03180f" d="M 461.5,406.5 C 460.322,409.477 460.322,412.477 461.5,415.5C 460.102,414.223 459.436,412.557 459.5,410.5C 459.34,408.645 460.007,407.312 461.5,406.5 Z"/></g>
<g><path style="opacity:0.357" fill="#051810" d="M 472.5,400.5 C 475.204,402.771 475.704,405.438 474,408.5C 472.274,409.576 470.441,409.743 468.5,409C 467.748,408.329 467.414,407.496 467.5,406.5C 468.756,406.904 469.923,407.571 471,408.5C 471.772,408.355 472.439,408.022 473,407.5C 473.556,405.115 473.39,402.782 472.5,400.5 Z"/></g>
<g><path style="opacity:1" fill="#055134" d="M 586.5,407.5 C 593.815,408.136 601.148,408.636 608.5,409C 611.714,411.369 612.381,413.869 610.5,416.5C 607.765,414.875 604.765,414.208 601.5,414.5C 606.401,424.55 605.068,433.717 597.5,442C 582.822,444.656 576.656,438.49 579,423.5C 580.97,420.032 583.136,416.699 585.5,413.5C 584.027,411.139 584.361,409.139 586.5,407.5 Z M 590.5,421.5 C 588.261,423.477 586.927,425.977 586.5,429C 587.597,434.466 590.43,435.633 595,432.5C 597.811,426.81 596.311,423.143 590.5,421.5 Z"/></g>
<g><path style="opacity:0.055" fill="#06261a" d="M 560.5,410.5 C 560.189,409.522 559.522,408.855 558.5,408.5C 552.225,409.824 545.891,410.824 539.5,411.5C 539.62,410.414 540.287,409.747 541.5,409.5C 547.319,408.377 553.152,407.377 559,406.5C 561.428,407.289 561.928,408.623 560.5,410.5 Z"/></g>
<g><path style="opacity:0.612" fill="#072b1c" d="M 641.5,454.5 C 641.611,453.883 641.944,453.383 642.5,453C 638.747,451.412 636.747,448.579 636.5,444.5C 638.531,437.813 639.865,430.979 640.5,424C 639.925,412.71 634.591,409.71 624.5,415C 620.453,418.771 619.453,423.271 621.5,428.5C 620.213,427.129 619.547,425.295 619.5,423C 619.667,421.167 619.833,419.333 620,417.5C 624.632,410.394 630.799,408.727 638.5,412.5C 641.047,416.568 642.381,421.068 642.5,426C 640.923,433.121 640.09,440.287 640,447.5C 640.465,448.931 641.299,450.097 642.5,451C 650.119,452.273 649.785,453.44 641.5,454.5 Z"/></g>
<g><path style="opacity:0.778" fill="#082116" d="M 782.5,412.5 C 780.473,412.338 778.473,412.505 776.5,413C 773.671,414.356 771.004,415.856 768.5,417.5C 770.479,413.081 773.979,410.747 779,410.5C 780.681,410.608 781.848,411.275 782.5,412.5 Z"/></g>
<g><path style="opacity:0.59" fill="#072217" d="M 538.5,411.5 C 535.678,412.507 532.678,413.34 529.5,414C 528.663,415.011 528.33,416.178 528.5,417.5C 527.212,415.965 527.212,414.299 528.5,412.5C 531.89,410.803 535.224,410.47 538.5,411.5 Z"/></g>
<g><path style="opacity:0.376" fill="#031910" d="M 449.5,410.5 C 450.496,410.414 451.329,410.748 452,411.5C 452.5,413.5 453,415.5 453.5,417.5C 453.253,418.713 452.586,419.38 451.5,419.5C 452.281,416.279 451.614,413.279 449.5,410.5 Z"/></g>
<g><path style="opacity:0.737" fill="#092a1c" d="M 742.5,420.5 C 743.097,420.265 743.43,419.765 743.5,419C 742.201,417.674 740.868,416.34 739.5,415C 738.004,414.493 736.837,414.993 736,416.5C 733.058,422.197 734.558,424.197 740.5,422.5C 738.61,426.056 736.11,426.39 733,423.5C 732.551,418.526 734.551,414.859 739,412.5C 744.501,414.183 745.834,417.517 743,422.5C 742.536,421.906 742.369,421.239 742.5,420.5 Z M 742.5,420.5 C 741.5,420.833 740.833,421.5 740.5,422.5C 734.558,424.197 733.058,422.197 736,416.5C 736.837,414.993 738.004,414.493 739.5,415C 740.868,416.34 742.201,417.674 743.5,419C 743.43,419.765 743.097,420.265 742.5,420.5 Z"/></g>
<g><path style="opacity:0.733" fill="#061c13" d="M 818.5,416.5 C 820.192,414.795 821.525,412.795 822.5,410.5C 823.612,410.486 823.779,411.486 823,413.5C 821.871,415.141 820.371,416.141 818.5,416.5 Z"/></g>
<g><path style="opacity:0.872" fill="#083522" d="M 554.5,412.5 C 554.586,413.496 554.252,414.329 553.5,415C 551.129,415.735 548.795,416.568 546.5,417.5C 544.258,420.707 541.592,423.373 538.5,425.5C 541.469,418.338 546.802,414.005 554.5,412.5 Z"/></g>
<g><path style="opacity:0.223" fill="#031109" d="M 512.5,413.5 C 514.25,416.355 515.083,419.689 515,423.5C 517.131,424.615 518.965,425.948 520.5,427.5C 517.348,428.041 514.848,427.041 513,424.5C 512.501,420.848 512.335,417.182 512.5,413.5 Z"/></g>
<g><path style="opacity:0.71" fill="#000101" d="M 870.5,417.5 C 884.814,418.267 888.814,425.1 882.5,438C 868.587,443.734 862.42,439.234 864,424.5C 865.425,421.394 867.592,419.06 870.5,417.5 Z"/></g>
<g><path style="opacity:0.537" fill="#073220" d="M 517.5,412.5 C 519.937,413.964 521.77,415.964 523,418.5C 523.212,421.758 523.712,424.924 524.5,428C 522.934,428.765 521.601,428.598 520.5,427.5C 521.239,427.631 521.906,427.464 522.5,427C 521.761,423.513 520.927,420.013 520,416.5C 518.519,415.529 517.685,414.196 517.5,412.5 Z"/></g>
<g><path style="opacity:0.753" fill="#09271a" d="M 561.5,419.5 C 557.752,420.207 554.086,421.207 550.5,422.5C 551.122,420.665 552.456,419.498 554.5,419C 557.039,418.204 559.372,418.371 561.5,419.5 Z"/></g>
<g><path style="opacity:0.556" fill="#010a05" d="M 589.5,418.5 C 595.355,418.49 598.355,421.49 598.5,427.5C 597.384,434.488 593.551,437.155 587,435.5C 583.494,429.197 584.327,423.53 589.5,418.5 Z M 590.5,421.5 C 588.261,423.477 586.927,425.977 586.5,429C 587.597,434.466 590.43,435.633 595,432.5C 597.811,426.81 596.311,423.143 590.5,421.5 Z"/></g>
<g><path style="opacity:0.882" fill="#0a2318" d="M 451.5,419.5 C 450.666,420.748 449.333,421.415 447.5,421.5C 443.192,422.201 438.859,422.534 434.5,422.5C 439.959,421.049 445.626,420.049 451.5,419.5 Z"/></g>
<g><path style="opacity:0.773" fill="#071f15" d="M 494.5,410.5 C 491.8,412.046 489.967,414.379 489,417.5C 487.462,422.12 488.962,425.287 493.5,427C 497.177,427.108 500.843,427.108 504.5,427C 500.441,428.076 496.441,429.243 492.5,430.5C 492.611,429.883 492.944,429.383 493.5,429C 486.129,425.654 484.629,420.487 489,413.5C 490.488,411.84 492.321,410.84 494.5,410.5 Z"/></g>
<g><path style="opacity:0.843" fill="#072a1c" d="M 496.5,414.5 C 502.362,414.662 503.695,417.162 500.5,422C 498.559,422.743 496.726,422.576 495,421.5C 494.4,418.905 494.9,416.571 496.5,414.5 Z M 498.5,416.5 C 497.194,417.467 496.527,418.801 496.5,420.5C 498.484,420.617 500.15,419.95 501.5,418.5C 500.995,417.081 499.995,416.415 498.5,416.5 Z"/></g>
<g><path style="opacity:0.757" fill="#062a1b" d="M 561.5,420.5 C 562.5,420.5 563.5,420.5 564.5,420.5C 565.008,423.176 565.175,425.843 565,428.5C 562.919,431.087 560.419,433.087 557.5,434.5C 559.127,432.37 560.96,430.37 563,428.5C 563.718,425.593 563.218,422.926 561.5,420.5 Z"/></g>
<g><path style="opacity:0.643" fill="#0a2b1d" d="M 730.5,399.5 C 726.167,399.5 721.833,399.5 717.5,399.5C 718.347,404.889 719.514,410.223 721,415.5C 721.653,421.862 721.487,428.195 720.5,434.5C 719.959,428.671 719.792,422.671 720,416.5C 717.068,410.901 715.902,404.901 716.5,398.5C 721.363,398.181 726.03,398.514 730.5,399.5 Z"/></g>
<g><path style="opacity:0.18" fill="#04120b" d="M 801.5,415.5 C 802.222,415.918 802.722,416.584 803,417.5C 803.498,420.482 803.665,423.482 803.5,426.5C 802.598,423.003 801.931,419.337 801.5,415.5 Z"/></g>
<g><path style="opacity:0.109" fill="#000000" d="M 857.5,421.5 C 858.947,422.134 859.613,423.301 859.5,425C 859.613,426.699 858.947,427.866 857.5,428.5C 857.5,426.167 857.5,423.833 857.5,421.5 Z"/></g>
<g><path style="opacity:0.259" fill="#062015" d="M 686.5,418.5 C 686.284,421.887 684.45,423.887 681,424.5C 679.97,424.164 679.47,423.497 679.5,422.5C 682.295,421.937 684.628,420.604 686.5,418.5 Z"/></g>
<g><path style="opacity:0.998" fill="#0a3322" d="M 728.5,413.5 C 728.121,419.428 729.121,425.095 731.5,430.5C 730.504,430.586 729.671,430.252 729,429.5C 726.092,424.09 725.925,418.757 728.5,413.5 Z"/></g>
<g><path style="opacity:0.302" fill="#02120a" d="M 785.5,415.5 C 787.059,421.33 784.726,424.997 778.5,426.5C 780.771,424.734 782.937,422.734 785,420.5C 785.494,418.866 785.66,417.199 785.5,415.5 Z"/></g>
<g><path style="opacity:0.612" fill="#0a1f16" d="M 461.5,415.5 C 466.823,416.302 468.489,419.135 466.5,424C 464.655,425.128 462.655,425.628 460.5,425.5C 460.724,429.179 461.058,432.846 461.5,436.5C 460.883,436.389 460.383,436.056 460,435.5C 459.333,431.833 459.333,428.167 460,424.5C 461.444,422.845 463.278,422.178 465.5,422.5C 465.762,421.022 465.429,419.689 464.5,418.5C 463.145,417.812 462.145,416.812 461.5,415.5 Z"/></g>
<g><path style="opacity:0.298" fill="#073020" d="M 846.5,415.5 C 848.044,415.703 849.378,416.37 850.5,417.5C 852.447,421.626 852.947,425.96 852,430.5C 851.241,432.063 850.074,433.063 848.5,433.5C 851.605,427.016 850.939,421.016 846.5,415.5 Z"/></g>
<g><path style="opacity:1" fill="#055134" d="M 872.5,422.5 C 880.887,423.909 882.554,428.075 877.5,435C 870.825,435.989 867.658,433.156 868,426.5C 869.397,424.93 870.897,423.596 872.5,422.5 Z"/></g>
<g><path style="opacity:0.792" fill="#08281a" d="M 705.5,430.5 C 707.337,433.519 707.837,436.852 707,440.5C 704.861,441.769 702.695,441.769 700.5,440.5C 698.164,435.157 695.831,429.824 693.5,424.5C 691.344,427.998 688.344,430.331 684.5,431.5C 686.22,428.269 688.553,425.436 691.5,423C 692.5,422.333 693.5,422.333 694.5,423C 697.165,427.911 699.332,433.078 701,438.5C 702.11,440.037 703.61,440.703 705.5,440.5C 704.761,436.985 704.761,433.652 705.5,430.5 Z"/></g>
<g><path style="opacity:0.11" fill="#072f1e" d="M 828.5,417.5 C 826.832,419.34 825.332,421.34 824,423.5C 823.444,425.885 823.61,428.218 824.5,430.5C 823.504,430.586 822.671,430.252 822,429.5C 820.535,423.322 822.701,419.322 828.5,417.5 Z"/></g>
<g><path style="opacity:1" fill="#082a1c" d="M 844.5,415.5 C 843.5,415.5 842.5,415.5 841.5,415.5C 841.896,419.375 842.562,423.208 843.5,427C 843.6,431.868 841.6,435.368 837.5,437.5C 841.142,430.471 841.475,423.137 838.5,415.5C 840.636,414.207 842.636,414.207 844.5,415.5 Z"/></g>
<g><path style="opacity:0.125" fill="#083220" d="M 762.5,412.5 C 760.954,418.014 760.121,423.681 760,429.5C 758.959,427.415 757.459,425.748 755.5,424.5C 754.691,422.929 754.357,421.262 754.5,419.5C 755.885,420.574 757.051,421.907 758,423.5C 757.89,419.068 759.39,415.402 762.5,412.5 Z"/></g>
<g><path style="opacity:0.361" fill="#072619" d="M 434.5,422.5 C 433.848,423.725 432.681,424.392 431,424.5C 426.863,425.237 422.697,425.571 418.5,425.5C 418.5,423.833 418.5,422.167 418.5,420.5C 417.448,420.351 416.448,420.517 415.5,421C 411.854,427.124 406.52,429.124 399.5,427C 398.177,426.184 397.511,425.017 397.5,423.5C 401.941,427.215 406.607,427.382 411.5,424C 412.99,419.946 415.657,418.446 419.5,419.5C 420.429,420.689 420.762,422.022 420.5,423.5C 425.167,423.167 429.833,422.833 434.5,422.5 Z"/></g>
<g><path style="opacity:0.024" fill="#01100a" d="M 671.5,426.5 C 673.341,427.402 674.674,428.736 675.5,430.5C 673.167,430.167 671.833,428.833 671.5,426.5 Z"/></g>
<g><path style="opacity:0.008" fill="#000706" d="M 750.5,427.5 C 749.167,427.833 747.833,428.167 746.5,428.5C 747.616,425.352 748.949,425.018 750.5,427.5 Z"/></g>
<g><path style="opacity:0.443" fill="#071f15" d="M 397.5,423.5 C 395.5,423.5 393.5,423.5 391.5,423.5C 391.5,425.5 391.5,427.5 391.5,429.5C 383.799,429.892 376.132,430.558 368.5,431.5C 368.5,432.833 368.5,434.167 368.5,435.5C 376.842,434.721 385.175,434.221 393.5,434C 396.474,438.305 396.14,442.138 392.5,445.5C 387.94,443.846 383.274,443.346 378.5,444C 375.254,445.742 372.921,448.242 371.5,451.5C 372.76,444.908 376.76,441.575 383.5,441.5C 386.666,441.449 389.666,442.116 392.5,443.5C 395.612,440.029 395.112,437.362 391,435.5C 383.542,436.747 376.042,437.247 368.5,437C 366.476,433.016 367.476,430.35 371.5,429C 377.827,428.349 384.16,427.849 390.5,427.5C 389.507,422.325 391.507,420.491 396.5,422C 397.056,422.383 397.389,422.883 397.5,423.5 Z"/></g>
<g><path style="opacity:0.273" fill="#010e07" d="M 444.5,427.5 C 440.057,428.801 435.391,429.468 430.5,429.5C 434.919,428.028 439.586,427.362 444.5,427.5 Z"/></g>
<g><path style="opacity:0.522" fill="#03170f" d="M 444.5,427.5 C 446.948,426.527 449.615,426.194 452.5,426.5C 452.5,428.167 452.5,429.833 452.5,431.5C 449.281,431.906 446.281,431.906 443.5,431.5C 445.964,430.257 448.63,429.257 451.5,428.5C 449.257,427.526 446.924,427.192 444.5,427.5 Z"/></g>
<g><path style="opacity:0.522" fill="#02120c" d="M 570.5,419.5 C 571.117,419.611 571.617,419.944 572,420.5C 572.717,424.137 573.217,427.804 573.5,431.5C 573.566,435.579 572.566,439.245 570.5,442.5C 571.767,434.837 571.767,427.17 570.5,419.5 Z"/></g>
<g><path style="opacity:0.255" fill="#02120b" d="M 612.5,426.5 C 614.341,428.849 615.674,431.515 616.5,434.5C 614.127,432.421 612.794,429.754 612.5,426.5 Z"/></g>
<g><path style="opacity:0.249" fill="#000301" d="M 430.5,429.5 C 427.373,430.581 424.04,431.247 420.5,431.5C 423.507,429.825 426.84,429.159 430.5,429.5 Z"/></g>
<g><path style="opacity:0.663" fill="#071d14" d="M 621.5,428.5 C 622.803,430.142 624.136,431.809 625.5,433.5C 622.516,433.213 621.183,431.546 621.5,428.5 Z"/></g>
<g><path style="opacity:0.639" fill="#082519" d="M 752.5,429.5 C 754.888,430.219 756.388,431.885 757,434.5C 757.74,435.749 757.573,436.749 756.5,437.5C 754.659,435.151 753.326,432.485 752.5,429.5 Z"/></g>
<g><path style="opacity:0.631" fill="#072c1d" d="M 825.5,431.5 C 832.743,433.087 835.576,430.087 834,422.5C 833.428,419.293 831.595,417.626 828.5,417.5C 828.62,416.414 829.287,415.747 830.5,415.5C 837.008,420.213 838.008,425.88 833.5,432.5C 832.333,432.833 831.167,433.167 830,433.5C 827.992,433.693 826.492,433.026 825.5,431.5 Z"/></g>
<g><path style="opacity:0.15" fill="#000000" d="M 531.5,432.5 C 532.748,433.334 533.415,434.667 533.5,436.5C 533.415,438.333 532.748,439.666 531.5,440.5C 531.5,437.833 531.5,435.167 531.5,432.5 Z"/></g>
<g><path style="opacity:0.797" fill="#083522" d="M 546.5,427.5 C 545.621,429.228 544.954,431.061 544.5,433C 544.439,434.711 545.106,436.044 546.5,437C 550.308,436.966 553.975,436.132 557.5,434.5C 554.179,439.148 549.846,440.315 544.5,438C 542.35,435.445 542.017,432.612 543.5,429.5C 544.265,428.388 545.265,427.721 546.5,427.5 Z"/></g>
<g><path style="opacity:0.951" fill="#093221" d="M 785.5,432.5 C 784.833,432.5 784.5,432.833 784.5,433.5C 778.199,436.374 771.866,436.707 765.5,434.5C 765.369,433.761 765.536,433.094 766,432.5C 773.184,435.526 779.851,434.526 786,429.5C 786.47,430.577 786.303,431.577 785.5,432.5 Z"/></g>
<g><path style="opacity:0.669" fill="#091f15" d="M 410.5,432.5 C 411.496,432.414 412.329,432.748 413,433.5C 413.808,437.027 413.641,440.36 412.5,443.5C 412.583,439.665 411.917,435.998 410.5,432.5 Z"/></g>
<g><path style="opacity:0.733" fill="#07291d" d="M 520.5,435.5 C 518.932,434.527 517.265,434.36 515.5,435C 515.026,436.729 514.026,437.895 512.5,438.5C 512.299,435.238 513.799,433.238 517,432.5C 519.275,432.278 520.441,433.278 520.5,435.5 Z"/></g>
<g><path style="opacity:0.668" fill="#04180f" d="M 407.5,432.5 C 405.909,433.219 404.409,434.219 403,435.5C 402.499,439.51 401.999,443.51 401.5,447.5C 404.834,445.387 408.5,444.054 412.5,443.5C 408.307,445.807 404.141,448.474 400,451.5C 400.239,445.461 401.072,439.461 402.5,433.5C 404.071,432.691 405.738,432.357 407.5,432.5 Z"/></g>
<g><path style="opacity:0.733" fill="#08291b" d="M 809.5,418.5 C 810.811,424.057 810.644,429.723 809,435.5C 808.535,436.931 807.701,438.097 806.5,439C 804.19,439.497 801.857,439.663 799.5,439.5C 799.941,435.112 801.275,431.112 803.5,427.5C 803.369,431.285 802.702,434.952 801.5,438.5C 802.873,438.657 804.207,438.49 805.5,438C 808.766,431.942 810.1,425.442 809.5,418.5 Z"/></g>
<g><path style="opacity:0.627" fill="#082317" d="M 501.5,443.5 C 503.644,440.878 504.977,437.878 505.5,434.5C 503.073,434.523 500.74,435.023 498.5,436C 496.886,438.127 494.886,439.627 492.5,440.5C 495.721,433.59 501.054,431.257 508.5,433.5C 507.355,437.794 505.188,441.461 502,444.5C 501.601,444.272 501.435,443.938 501.5,443.5 Z"/></g>
<g><path style="opacity:0.741" fill="#082317" d="M 649.5,429.5 C 649.374,431.2 648.707,432.7 647.5,434C 647.833,434.5 648.167,435 648.5,435.5C 652.671,437.326 656.671,438.993 660.5,440.5C 657.813,440.664 655.146,440.497 652.5,440C 645.946,437.674 644.946,434.174 649.5,429.5 Z"/></g>
<g><path style="opacity:0.827" fill="#092f1f" d="M 790.5,407.5 C 792.617,413.899 793.951,420.565 794.5,427.5C 793.774,430.852 792.941,434.185 792,437.5C 787.105,440.802 784.605,439.468 784.5,433.5C 784.833,433.5 785.167,433.5 785.5,433.5C 785.5,434.833 785.5,436.167 785.5,437.5C 786.978,437.762 788.311,437.429 789.5,436.5C 790.083,434.998 790.916,433.665 792,432.5C 791.835,424.166 791.335,415.832 790.5,407.5 Z"/></g>
<g><path style="opacity:0.224" fill="#051910" d="M 443.5,454.5 C 446.391,452.116 449.224,449.449 452,446.5C 453.373,444.305 453.706,441.971 453,439.5C 452.107,438.919 451.107,438.585 450,438.5C 447.46,439.185 444.96,440.019 442.5,441C 440.63,443.04 438.63,444.873 436.5,446.5C 439.474,439.508 444.807,436.341 452.5,437C 455.886,438.599 456.886,441.099 455.5,444.5C 452.362,448.981 448.362,452.314 443.5,454.5 Z"/></g>
<g><path style="opacity:0.639" fill="#072016" d="M 442.5,431.5 C 437.881,435.452 433.548,439.785 429.5,444.5C 429.709,443.078 430.209,441.745 431,440.5C 433.35,438.317 435.517,435.984 437.5,433.5C 438.85,432.05 440.516,431.383 442.5,431.5 Z"/></g>
<g><path style="opacity:0.869" fill="#062a1c" d="M 724.5,436.5 C 727.006,437.75 729.673,438.416 732.5,438.5C 732.806,441.385 732.473,444.052 731.5,446.5C 730.761,446.631 730.094,446.464 729.5,446C 731.155,444.556 731.822,442.722 731.5,440.5C 729.409,440.682 727.409,440.348 725.5,439.5C 724.614,438.675 724.281,437.675 724.5,436.5 Z"/></g>
<g><path style="opacity:0.162" fill="#010c06" d="M 835.5,438.5 C 832.96,440.413 830.293,440.746 827.5,439.5C 830.167,439.167 832.833,438.833 835.5,438.5 Z"/></g>
<g><path style="opacity:0.363" fill="#08271a" d="M 521.5,435.5 C 522.675,435.281 523.675,435.614 524.5,436.5C 526.515,441.209 525.515,444.876 521.5,447.5C 522.262,445.044 522.929,442.544 523.5,440C 523.481,438.167 522.815,436.667 521.5,435.5 Z"/></g>
<g><path style="opacity:0.325" fill="#02130c" d="M 561.5,440.5 C 561.5,440.833 561.5,441.167 561.5,441.5C 559.046,443.06 556.38,444.06 553.5,444.5C 555.849,442.659 558.515,441.326 561.5,440.5 Z"/></g>
<g><path style="opacity:0.557" fill="#08271a" d="M 563.5,445.5 C 561.824,444.817 561.157,443.483 561.5,441.5C 562.833,441.167 562.833,440.833 561.5,440.5C 561.821,438.952 562.821,438.285 564.5,438.5C 564.326,440.861 563.993,443.194 563.5,445.5 Z"/></g>
<g><path style="opacity:0.878" fill="#0a2418" d="M 419.5,433.5 C 420.657,437.793 421.657,442.127 422.5,446.5C 421.249,444.618 420.082,442.618 419,440.5C 418.204,437.961 418.371,435.628 419.5,433.5 Z"/></g>
<g><path style="opacity:0.51" fill="#03170f" d="M 644.5,443.5 C 650.386,443.341 650.886,444.674 646,447.5C 644.812,446.437 644.312,445.103 644.5,443.5 Z"/></g>
<g><path style="opacity:0.094" fill="#051b13" d="M 461.5,436.5 C 463.045,437.23 463.878,438.563 464,440.5C 464.667,446.167 464.667,451.833 464,457.5C 463.583,458.756 462.75,459.423 461.5,459.5C 462.833,451.833 462.833,444.167 461.5,436.5 Z"/></g>
<g><path style="opacity:0.678" fill="#092318" d="M 660.5,441.5 C 659.223,448.22 656.223,454.054 651.5,459C 649.975,460.009 648.308,460.509 646.5,460.5C 652.97,456.361 656.804,450.361 658,442.5C 658.671,441.748 659.504,441.414 660.5,441.5 Z"/></g>
<g><path style="opacity:1" fill="#0b2a1c" d="M 703.5,449.5 C 699.671,448.951 697.004,446.951 695.5,443.5C 696.251,442.427 697.251,442.26 698.5,443C 699.999,445.328 701.666,447.495 703.5,449.5 Z"/></g>
<g><path style="opacity:0.929" fill="#0a1f16" d="M 388.5,453.5 C 388.586,452.504 388.252,451.671 387.5,451C 381.858,449.124 379.191,451.29 379.5,457.5C 377.765,449.332 381.099,446.666 389.5,449.5C 389.768,451.099 389.434,452.432 388.5,453.5 Z"/></g>
<g><path style="opacity:0.716" fill="#092a1c" d="M 632.5,452.5 C 629.167,451.167 625.833,449.833 622.5,448.5C 622.247,450.827 622.914,452.827 624.5,454.5C 624.376,455.107 624.043,455.44 623.5,455.5C 620.55,453.089 619.883,450.089 621.5,446.5C 622.167,446.167 622.833,445.833 623.5,445.5C 626.349,448.084 629.349,450.417 632.5,452.5 Z"/></g>
<g><path style="opacity:0.592" fill="#071b12" d="M 521.5,449.5 C 521.962,450.88 522.962,451.547 524.5,451.5C 526.3,451.098 527.967,450.431 529.5,449.5C 529.116,452.05 527.616,453.383 525,453.5C 521.9,453.272 520.733,451.939 521.5,449.5 Z"/></g>
<g><path style="opacity:0.373" fill="#09291d" d="M 731.5,447.5 C 730.36,449.78 729.193,452.114 728,454.5C 726.871,456.141 725.371,457.141 723.5,457.5C 725.228,453.357 727.894,450.024 731.5,447.5 Z"/></g>
<g><path style="opacity:0.056" fill="#000904" d="M 225.5,452.5 C 225.5,453.833 224.833,454.5 223.5,454.5C 223.5,453.167 224.167,452.5 225.5,452.5 Z"/></g>
<g><path style="opacity:0.514" fill="#082f1f" d="M 490.5,432.5 C 488.396,435.804 487.063,439.471 486.5,443.5C 488.096,451.303 492.763,453.969 500.5,451.5C 501.298,451.957 501.631,452.624 501.5,453.5C 485.506,455.246 481.006,448.579 488,433.5C 488.671,432.748 489.504,432.414 490.5,432.5 Z"/></g>
<g><path style="opacity:0.586" fill="#083221" d="M 706.5,450.5 C 709.464,451.495 712.464,451.995 715.5,452C 711.103,450.118 709.436,446.785 710.5,442C 710.964,435.313 712.297,428.813 714.5,422.5C 714.272,420.603 713.272,419.27 711.5,418.5C 709.261,419.788 706.928,420.788 704.5,421.5C 707.989,416.72 711.822,416.386 716,420.5C 714.195,429.37 712.695,438.37 711.5,447.5C 714.073,448.493 716.74,449.326 719.5,450C 720.357,450.689 721.023,451.522 721.5,452.5C 716.556,454.382 711.556,454.715 706.5,453.5C 706.5,452.5 706.5,451.5 706.5,450.5 Z"/></g>
<g><path style="opacity:0.984" fill="#0c291c" d="M 436.5,447.5 C 435.392,452.846 437.725,455.179 443.5,454.5C 441.039,455.531 438.373,456.198 435.5,456.5C 435.277,454.658 434.943,452.825 434.5,451C 434.387,449.301 435.053,448.134 436.5,447.5 Z"/></g>
<g><path style="opacity:0.183" fill="#061612" d="M 422.5,446.5 C 423.117,446.611 423.617,446.944 424,447.5C 424.828,452.202 424.662,456.869 423.5,461.5C 422.642,463.901 421.309,465.901 419.5,467.5C 422.15,460.791 423.15,453.791 422.5,446.5 Z"/></g>
<g><path style="opacity:0.043" fill="#000c07" d="M 428.5,456.5 C 430.5,457.833 432.167,459.5 433.5,461.5C 430.833,460.833 429.167,459.167 428.5,456.5 Z"/></g>
<g><path style="opacity:0.671" fill="#072417" d="M 461.5,459.5 C 460.258,463.392 457.758,464.392 454,462.5C 453.667,461.167 453.333,459.833 453,458.5C 446.812,462.981 440.312,463.981 433.5,461.5C 441.156,461.836 448.156,459.836 454.5,455.5C 455.466,457.396 455.799,459.396 455.5,461.5C 457.858,461.747 459.858,461.081 461.5,459.5 Z"/></g>
<g><path style="opacity:0.812" fill="#091f15" d="M 386.5,456.5 C 384.266,459.665 381.932,459.998 379.5,457.5C 380.15,457.804 380.817,458.137 381.5,458.5C 383.075,457.544 384.742,456.877 386.5,456.5 Z"/></g>
<g><path style="opacity:0.78" fill="#07281a" d="M 630.5,459.5 C 635.797,460.275 641.13,460.608 646.5,460.5C 644.527,461.163 642.361,461.496 640,461.5C 636.523,461.672 633.356,461.006 630.5,459.5 Z"/></g>
<g><path style="opacity:0.933" fill="#09281a" d="M 371.5,459.5 C 374.438,460.622 376.438,462.622 377.5,465.5C 374.167,464.833 372.167,462.833 371.5,459.5 Z"/></g>
<g><path style="opacity:0.749" fill="#082519" d="M 412.5,451.5 C 413.708,450.218 415.042,450.218 416.5,451.5C 417.979,456.481 417.312,461.148 414.5,465.5C 415.668,467.217 417.335,467.884 419.5,467.5C 417.44,468.811 415.274,468.811 413,467.5C 413.338,463.623 414.171,459.79 415.5,456C 415.95,453.374 414.95,451.874 412.5,451.5 Z"/></g>
<g><path style="opacity:0.5" fill="#02150d" d="M 412.5,451.5 C 410.425,453.719 408.091,455.719 405.5,457.5C 408.681,462.374 410.014,467.708 409.5,473.5C 407.143,473.663 404.81,473.497 402.5,473C 400.56,468.172 398.06,463.672 395,459.5C 390.445,466.244 384.611,468.244 377.5,465.5C 380.518,465.665 383.518,465.498 386.5,465C 388.99,462.345 391.656,459.845 394.5,457.5C 399.491,460.798 402.491,465.465 403.5,471.5C 404.689,472.429 406.022,472.762 407.5,472.5C 407.564,467.085 406.23,462.085 403.5,457.5C 405.378,453.976 408.378,451.976 412.5,451.5 Z"/></g>
</svg>
